<?xml version="1.0" encoding="UTF-8"?>
<svg version="1.1" xmlns="http://www.w3.org/2000/svg" width="1024" height="1028">
<path d="M0 0 C2.5270955 0.20291919 3.64538039 0.59657953 5.33056641 2.51367188 C17.90573473 23.96700547 25.04713664 48.41379229 28 73 C28.13019531 73.95003906 28.26039063 74.90007812 28.39453125 75.87890625 C29.97438416 89.33925305 29.55913281 103.55247951 28 117 C45.09381703 99.90618297 57.94546609 79.4212836 69.75219727 58.45776367 C71.15673341 55.96514332 72.5759372 53.48150518 74 51 C74.43892578 50.21592773 74.87785156 49.43185547 75.33007812 48.62402344 C75.75224609 47.89989258 76.17441406 47.17576172 76.609375 46.4296875 C76.97514648 45.79015137 77.34091797 45.15061523 77.71777344 44.49169922 C79.3347883 42.61051857 80.59092708 42.37184899 83 42 C87.27540858 48.109364 86.80380664 54.82422797 87 62 C87.02191406 62.68787598 87.04382813 63.37575195 87.06640625 64.08447266 C88.15502117 102.93895345 79.42716486 139.40091222 60 173 C80.63664108 163.34029566 101.22585198 148.25182388 116.5703125 131.20703125 C118.35941844 129.69655656 119.67721172 129.23787591 122 129 C124.78731728 131.78731728 124.36597032 133.52861312 124.4375 137.4375 C124.35205015 166.58658065 106.18291705 196.06020578 87.0234375 216.7890625 C85.41489991 218.54665377 83.91074626 220.31875138 82.4375 222.1875 C79.88990274 225.1270353 77.18846755 227.56800976 74.23046875 230.08203125 C71.80725679 232.16573891 69.47144238 234.3303696 67.125 236.5 C60.90857194 242.11298435 54.2001281 246.74364109 47 251 C70.86375906 250.31622467 93.49993459 245.23670024 114.765625 234.3203125 C118.12625936 232.94845934 120.41101786 232.72810741 124 233 C125.20926572 240.6010988 121.21318587 245.93040177 117 252 C112.0905322 258.3940188 106.73136022 264.33303708 101 270 C100.30261719 270.74378906 99.60523438 271.48757813 98.88671875 272.25390625 C75.50177762 296.80186399 42.82470873 312.10880861 10 319 C24.71970666 322.09500716 38.49298908 323.36395938 53.39453125 320.4453125 C56.98670995 319.83135692 60.36537033 319.86020655 64 320 C65.08434849 323.56285933 65.48443827 325.75460781 64.1171875 329.26953125 C57.96080538 340.15753277 48.59306915 349.18816685 38.70996094 356.69970703 C37.46813584 357.64401892 36.23260858 358.59663089 35.00097656 359.55419922 C-1.6625 388 -1.6625 388 -13 388 C-13 388.66 -13 389.32 -13 390 C-12.1028125 390.3403125 -12.1028125 390.3403125 -11.1875 390.6875 C-8.3320502 392.40076988 -7.34019673 393.9669232 -6 397 C-6.24386431 399.80665655 -6.5494537 401.47394315 -8.3984375 403.6328125 C-22.33762766 414.15607464 -38.15782803 421.81727305 -54 429 C-55.21246723 429.55549297 -56.42472725 430.11143857 -57.63671875 430.66796875 C-60.0870975 431.78805225 -62.54050003 432.90013372 -65 434 C-64.45859375 434.67095703 -64.45859375 434.67095703 -63.90625 435.35546875 C-61.85131891 438.03258731 -60.20389365 440.30336337 -59.25 443.5625 C-61.08480904 449.52562939 -68.08069143 452.72944295 -73.23828125 455.5078125 C-74.99445221 456.41492153 -76.75077435 457.32183506 -78.5144043 458.21435547 C-80.30369614 459.12054129 -82.08481333 460.04137154 -83.86523438 460.96484375 C-90.45470363 464.34236066 -97.05630027 467.42281341 -104 470 C-102.38895936 475.53286683 -99.75041945 479.54634299 -96.4609375 484.21875 C-94.73653332 487.50157294 -94.40896982 489.34455286 -95 493 C-102.88445721 502.05321204 -118.70779131 505.73166205 -129.8046875 509.23828125 C-131.94882731 509.80341253 -131.94882731 509.80341253 -133 511 C-132.35675781 511.20044922 -131.71351563 511.40089844 -131.05078125 511.60742188 C-106.38112558 519.3672779 -90.21250159 527.30837258 -73.05859375 546.6875 C-70.32298733 549.76051518 -68.13060654 552.13317164 -64.3828125 553.90234375 C-63.34833984 554.40217773 -63.34833984 554.40217773 -62.29296875 554.91210938 C-60.85555035 555.59196943 -59.41805123 556.27165884 -57.98046875 556.95117188 C-49.02388381 561.27935398 -43.98255401 566.7344419 -40.17578125 576.0078125 C-37.10792832 586.40805153 -38.81301949 597.19196614 -43 607 C-44.75640312 609.9258099 -46.68682038 612.49559754 -49 615 C-49.49371094 615.56460938 -49.98742187 616.12921875 -50.49609375 616.7109375 C-52 618 -52 618 -55 618 C-55.27714844 617.15695312 -55.55429687 616.31390625 -55.83984375 615.4453125 C-56.20207031 614.34960938 -56.56429687 613.25390625 -56.9375 612.125 C-57.29714844 611.03445313 -57.65679688 609.94390625 -58.02734375 608.8203125 C-58.89914074 606.09241318 -58.89914074 606.09241318 -60 604 C-63.29796959 604.4122462 -65.33464835 605.19306636 -68.25 606.875 C-76.35584919 611.05622947 -86.44669218 611.54491653 -95.38671875 612.7109375 C-114.34407714 614.88673737 -114.34407714 614.88673737 -130 625 C-133.6122617 629.83028052 -136.82544734 634.87486245 -140 640 C-140.82420222 641.32422904 -141.6484208 642.64844789 -142.47265625 643.97265625 C-142.87838867 644.62532471 -143.28412109 645.27799316 -143.70214844 645.95043945 C-144.10981445 646.60616943 -144.51748047 647.26189941 -144.9375 647.9375 C-145.35161133 648.60418701 -145.76572266 649.27087402 -146.19238281 649.95776367 C-160.64177927 673.11306097 -177.38459594 697.89222061 -197.6015625 716.37890625 C-202.51689492 720.60441713 -202.51689492 720.60441713 -204.4375 726.5 C-201.25172966 734.25665823 -196.82625514 739.27785293 -190.5625 744.6875 C-185.79233383 748.81379079 -182.73689519 752.59856098 -180.1875 758.375 C-177.43445698 764.51692399 -174.9508996 767.85924743 -169 771 C-168.24203125 771.41894531 -167.4840625 771.83789062 -166.703125 772.26953125 C-161.968391 774.64484244 -159.26641553 775.4415371 -154 774 C-150.62821343 772.29960831 -147.45421642 770.26869941 -144.2734375 768.23828125 C-139.01652902 765.0779997 -134.1874937 763.5375388 -128 764 C-124.52035814 764.98066375 -121.4481227 766.45596352 -118.25 768.125 C-117.03376953 768.7128125 -117.03376953 768.7128125 -115.79296875 769.3125 C-105.83255874 774.26841132 -99.76262203 780.92043651 -95 791 C-92.77572205 799.88626168 -93.77747627 808.53373235 -98.375 816.4375 C-100.21344135 819.37307571 -101.80704654 820.64808992 -105 822 C-105.268125 821.01 -105.53625 820.02 -105.8125 819 C-107.79123952 811.38085425 -107.79123952 811.38085425 -112 805 C-114.06874034 804.3574765 -114.06874034 804.3574765 -116 804 C-115.95359375 804.90621094 -115.9071875 805.81242188 -115.859375 806.74609375 C-115.63675261 814.25959944 -115.49550318 820.71610251 -120 827 C-127.5567867 834.90027701 -127.5567867 834.90027701 -133.0625 835.125 C-136 835 -136 835 -137 834 C-136.94921875 832.25 -136.94921875 832.25 -136.6875 830 C-136.59339844 829.18789063 -136.49929688 828.37578125 -136.40234375 827.5390625 C-136.01254497 825.07916726 -135.41339938 822.77312695 -134.75 820.375 C-133.6174066 815.61977332 -134.59982084 813.20031354 -137 809 C-138.75365293 806.81432788 -138.75365293 806.81432788 -140.890625 806.84765625 C-149.13970562 807.59881425 -159.41592751 809.30876256 -165.3515625 815.421875 C-166.82595835 817.72780216 -167.60319305 819.32155309 -168 822 C-167.27554688 822.10957031 -166.55109375 822.21914063 -165.8046875 822.33203125 C-157.45370446 823.70159247 -151.73695145 825.34443569 -146.328125 832.10546875 C-143.51447967 836.11905106 -141.85361895 839.38980847 -142.3125 844.4375 C-142.539375 845.283125 -142.76625 846.12875 -143 847 C-149.55587393 846.24355301 -149.55587393 846.24355301 -151.9375 844.9375 C-155.28285389 843.4168846 -158.35049383 843.82341099 -162 844 C-162.66 844.33 -163.32 844.66 -164 845 C-164.34919441 848.0178194 -164.34919441 848.0178194 -162.42578125 849.61328125 C-161.72839844 850.17402344 -161.03101563 850.73476563 -160.3125 851.3125 C-154.1495063 856.50468584 -149.60764121 861.08250942 -148.74609375 869.47265625 C-148.42292863 876.88460462 -149.65735087 883.79564812 -154.37890625 889.734375 C-155.75 891.125 -155.75 891.125 -158 893 C-162.15336921 889.35669367 -164.10584282 885.04295494 -166.35546875 880.1328125 C-168.11436257 876.42401377 -169.90874309 873.71162887 -173 871 C-175.26625003 872.01590518 -176.76933232 872.70342727 -178.3125 874.6875 C-180 876 -180 876 -183.1875 876.125 C-187.67915864 874.79959253 -189.80328521 872.7908876 -193.171875 869.66015625 C-196.87234788 866.29968408 -199.81981343 865.81831341 -204.6875 866 C-213.85449021 867.17141331 -221.76249395 873.44912642 -228 880 C-230.43000348 883.46091404 -231.24108157 885.90967552 -231 890.0625 C-230.204919 894.38216685 -228.51063894 896.27746368 -225 899 C-221.72110391 901.10069948 -218.3900508 903.08445673 -215 905 C-215.7109375 909.7734375 -215.7109375 909.7734375 -218.3125 911.8125 C-226.257639 914.37110408 -234.11786435 913.79795342 -241.6875 910.31640625 C-250.48084472 905.31073536 -255.23093702 898.04159196 -259.375 889 C-260.71635889 882.56147731 -261.165788 876.39298416 -257.41796875 870.65625 C-255.1340236 867.98850139 -252.47390746 865.82665534 -249.70703125 863.67578125 C-247.70460074 861.7100085 -247.09894611 860.80694495 -247 858 C-248.83613227 854.09821892 -251.44302247 851.31343294 -254.5 848.3125 C-255.66015625 847.16201172 -255.66015625 847.16201172 -256.84375 845.98828125 C-260.64069949 842.48710862 -262.92087511 841.689777 -268.08984375 841.79296875 C-270.09245913 841.890437 -270.09245913 841.890437 -272 843.0625 C-275.37738765 844.64565046 -278.56103243 844.07734028 -282 843 C-283.5351488 842.03282946 -285.03491861 841.00784444 -286.5 839.9375 C-289.58176129 837.69380804 -291.35361518 836.63401295 -295.1875 836.875 C-299.9661299 837.03167639 -301.32702308 835.98429375 -305 833 C-305.90685547 832.06220703 -305.90685547 832.06220703 -306.83203125 831.10546875 C-307.48558594 830.45191406 -308.13914062 829.79835938 -308.8125 829.125 C-309.39644531 828.48820313 -309.98039062 827.85140625 -310.58203125 827.1953125 C-313.98447853 825.51332725 -316.31634217 825.91942888 -319.92456055 826.90332031 C-322.46735823 828.24695602 -323.02528815 829.18875351 -324.09375 831.83203125 C-324.59671387 833.48214418 -325.06329602 835.14362764 -325.5 836.8125 C-326.05995974 838.63870787 -326.6265988 840.46287842 -327.19921875 842.28515625 C-327.48845215 843.22891113 -327.77768555 844.17266602 -328.07568359 845.14501953 C-334.70085439 865.60850272 -344.90530766 882.79779561 -360 898 C-360.63679688 898.67417969 -361.27359375 899.34835937 -361.9296875 900.04296875 C-365.00052001 903.25338455 -368.25484305 906.00954003 -371.75 908.75 C-378.51077689 914.16050999 -384.48007479 920.34985788 -390.53808594 926.52441406 C-391.32989258 927.32975586 -392.12169922 928.13509766 -392.9375 928.96484375 C-393.64777344 929.6930835 -394.35804688 930.42132324 -395.08984375 931.17163086 C-397 933 -397 933 -400 935 C-402.6875 934.625 -402.6875 934.625 -405 934 C-405.33 933.01 -405.66 932.02 -406 931 C-411.53690553 935.4338083 -416.94876315 939.8997627 -422.125 944.75 C-428.75913138 950.86643905 -435.96199608 956.21979555 -443.18554688 961.61547852 C-444.75018732 962.80938002 -446.26706476 964.06540515 -447.7734375 965.33203125 C-450.76720336 967.57472954 -453.31700397 967.78751946 -457 968 C-458 967 -458 967 -458.24609375 963.5859375 C-458.17904189 958.31354401 -456.6620282 953.61025722 -455.0625 948.625 C-454.78470703 947.72394531 -454.50691406 946.82289063 -454.22070312 945.89453125 C-452.20076885 939.4015377 -452.20076885 939.4015377 -451 937 C-451.94746094 937.39940796 -451.94746094 937.39940796 -452.9140625 937.80688477 C-494.12943272 955.05542812 -494.12943272 955.05542812 -509.6875 955.1875 C-510.45449219 955.20167969 -511.22148437 955.21585938 -512.01171875 955.23046875 C-514 955 -514 955 -516 953 C-515.8233722 947.70116591 -513.44738481 944.27627839 -510.4375 940.125 C-502.63366195 928.89549728 -497.00207379 916.69757192 -492 904 C-492.90621094 904.33773437 -493.81242187 904.67546875 -494.74609375 905.0234375 C-513.252506 911.79933024 -541.31114926 917.46197482 -560.3125 909.4375 C-561.199375 908.963125 -562.08625 908.48875 -563 908 C-563.26953125 905.765625 -563.26953125 905.765625 -563 903 C-561.19921875 900.859375 -561.19921875 900.859375 -558.6875 898.75 C-557.77355469 897.96882812 -556.85960937 897.18765625 -555.91796875 896.3828125 C-554.03448439 894.84475967 -552.14183168 893.31783508 -550.23828125 891.8046875 C-539.41328854 883.18793153 -531.36122032 873.64008195 -524 862 C-524.72775635 861.93530518 -525.4555127 861.87061035 -526.20532227 861.80395508 C-546.88172541 859.91366161 -566.65442331 856.91537665 -586.4375 850.5 C-587.28368896 850.22768555 -588.12987793 849.95537109 -589.00170898 849.67480469 C-594.31008149 847.86075991 -599.74087496 845.75208634 -604 842 C-605.0625 838.25 -605.0625 838.25 -605 835 C-603.44101603 833.44101603 -601.77564539 833.67310804 -599.609375 833.45703125 C-525.01908936 825.341494 -450.83963678 773.20664825 -402 718 C-400.41746756 716.24927571 -398.83416974 714.49924289 -397.25 712.75 C-396.52039063 711.93402344 -395.79078125 711.11804688 -395.0390625 710.27734375 C-393.79330592 708.88601025 -392.539917 707.50140326 -391.2734375 706.12890625 C-385.28457141 699.52980025 -380.20040893 692.22226774 -375 685 C-377.50007243 685 -379.69903719 685.68837029 -382.1027832 686.3215332 C-395.54773526 689.78710527 -418.0225708 695.50909512 -430.80859375 688.44921875 C-431.53175781 687.97097656 -432.25492187 687.49273438 -433 687 C-432.08880244 682.84898891 -430.73489123 680.52289879 -427.6875 677.6875 C-423.71636754 673.98221741 -421.38129299 669.83940188 -419 665 C-420.06476563 665.53109375 -421.12953125 666.0621875 -422.2265625 666.609375 C-440.29075735 675.46051668 -459.23853909 680.98498382 -479.5 677.25 C-483 676 -483 676 -484.21875 673.921875 C-484.4765625 673.28765625 -484.734375 672.6534375 -485 672 C-484.61328125 671.49210938 -484.2265625 670.98421875 -483.828125 670.4609375 C-478.04856484 663.21517324 -478.04856484 663.21517324 -474 655 C-475.25296875 655.15984375 -476.5059375 655.3196875 -477.796875 655.484375 C-506.48836144 658.6424543 -539.11511914 654.27148552 -565 641 C-566 640 -566 640 -566.55078125 637.734375 C-566 635 -566 635 -564.57958984 633.79882812 C-562.48669677 632.53079687 -560.3576892 631.38068681 -558.1875 630.25 C-545.92445524 623.92316256 -545.92445524 623.92316256 -537 614 C-538.0725 614.2165625 -539.145 614.433125 -540.25 614.65625 C-561.78322237 618.62227719 -585.6419391 619.17971549 -607 614 C-607.97670654 613.76724365 -607.97670654 613.76724365 -608.97314453 613.52978516 C-622.70280269 610.1884816 -622.70280269 610.1884816 -628 606 C-628.9375 602.75 -628.9375 602.75 -629 600 C-623.30013244 596.91582509 -618.04362276 595.06934351 -611.75 593.625 C-601.74099238 591.15922407 -592.92026895 587.85779385 -585 581 C-584.67 580.34 -584.34 579.68 -584 579 C-584.91136719 579.144375 -585.82273437 579.28875 -586.76171875 579.4375 C-616.59704843 583.71241291 -649.52906584 580.94235233 -674.72119141 562.75756836 C-677.64942513 560.4508568 -678.90098581 559.37483944 -679.875 555.6875 C-679.91625 554.800625 -679.9575 553.91375 -680 553 C-675.47279472 549.72676604 -671.06092325 549.09028809 -665.6875 548.1875 C-649.41911914 545.16536327 -633.24530411 539.16320996 -620 529 C-620.69859131 529.01047363 -621.39718262 529.02094727 -622.11694336 529.03173828 C-635.87046288 529.21019407 -649.41760551 529.35769867 -663 527 C-663.74765625 526.87109375 -664.4953125 526.7421875 -665.265625 526.609375 C-687.17822207 522.6912285 -716.48686829 515.37800127 -731.83984375 497.90625 C-733.31395943 495.484134 -733.23203913 493.7844696 -733 491 C-728.1819045 488.77713158 -723.5952355 487.30103364 -718.37109375 486.31640625 C-717.65953629 486.17476547 -716.94797882 486.03312469 -716.21485901 485.88719177 C-713.95710457 485.43832602 -711.69759819 484.99939901 -709.4375 484.5625 C-698.78950468 482.49511968 -688.37923774 480.17697988 -678 477 C-681.74731337 475.74267324 -685.50227364 474.51960781 -689.2734375 473.3359375 C-701.44705414 469.45225005 -712.81979315 465.17945671 -724 459 C-725.32246074 458.29341685 -726.64538653 457.58770347 -727.96875 456.8828125 C-749.50958213 445.25055422 -787.10702339 424.4971785 -798 402 C-797.6875 399.1875 -797.6875 399.1875 -797 397 C-790.94937602 396.69499579 -785.72771542 397.85412015 -779.875 399.3125 C-754.11674063 405.72808353 -754.11674063 405.72808353 -728 404 C-729.06476563 403.46632813 -730.12953125 402.93265625 -731.2265625 402.3828125 C-741.13965184 397.32750443 -750.14687611 391.72972235 -759 385 C-759.83015625 384.38253906 -760.6603125 383.76507813 -761.515625 383.12890625 C-766.44321052 379.39875847 -771.0357949 375.35468538 -775.59375 371.18359375 C-777.71359488 369.25990335 -779.87455149 367.40749626 -782.0625 365.5625 C-795.27500969 353.9651468 -810.40160518 336.19542595 -812 318 C-811.67 317.34 -811.34 316.68 -811 316 C-806.22031303 316.56745142 -802.35867298 318.07206961 -798.0625 320.125 C-782.82879566 327.07466276 -763.94504762 334 -747 334 C-747.81082031 333.15179688 -748.62164063 332.30359375 -749.45703125 331.4296875 C-779.6430795 299.57301107 -800.89066391 261.93353095 -815.5625 220.6875 C-815.89701172 219.76380615 -816.23152344 218.8401123 -816.57617188 217.88842773 C-818.60246244 212.01485127 -819.9992396 206.25128077 -820 200 C-819.505 199.01 -819.505 199.01 -819 198 C-815.21402539 198.52933609 -813.13002404 199.3373373 -810.3203125 201.921875 C-809.63227539 202.55416016 -808.94423828 203.18644531 -808.23535156 203.83789062 C-804.95049872 207.01511395 -801.73672814 210.25722676 -798.54125977 213.52416992 C-789.82229563 222.43793556 -781.11708866 230.71765116 -771 238 C-769.90023889 238.81662833 -768.80129012 239.63435171 -767.703125 240.453125 C-749.65380197 253.76695486 -730.18643239 265.25087072 -710 275 C-710.59425781 274.01644531 -711.18851563 273.03289062 -711.80078125 272.01953125 C-765.04853852 183.18620965 -765.04853852 183.18620965 -759 148 C-758.34 147.01 -757.68 146.02 -757 145 C-753.85528486 145.31501464 -752.343963 145.6663353 -750.04296875 147.8984375 C-749.12451172 149.12433594 -749.12451172 149.12433594 -748.1875 150.375 C-747.49527344 151.28507813 -746.80304688 152.19515625 -746.08984375 153.1328125 C-744.12622874 155.82681889 -742.18650545 158.53647677 -740.25 161.25 C-735.25219453 168.19194198 -729.64835609 174.58639539 -724 181 C-723.26007813 181.84175781 -722.52015625 182.68351563 -721.7578125 183.55078125 C-702.82161681 204.81115541 -702.82161681 204.81115541 -682.046875 224.234375 C-679.54285151 226.3943342 -677.12002302 228.63487993 -674.6875 230.875 C-668.06160557 236.91951373 -661.18702657 242.63463561 -654 248 C-654.20157715 247.41621582 -654.4031543 246.83243164 -654.61083984 246.23095703 C-655.5388341 243.53119201 -656.45694552 240.82816042 -657.375 238.125 C-657.69210937 237.2071875 -658.00921875 236.289375 -658.3359375 235.34375 C-661.32252462 226.50842976 -663.36018948 218.0444235 -663.25 208.6875 C-663.25773438 208.01138672 -663.26546875 207.33527344 -663.2734375 206.63867188 C-663.25801359 202.68629457 -662.95518527 199.47371249 -661 196 C-658 195 -658 195 -655.63671875 196.0078125 C-652.27423223 198.54835787 -650.1990759 201.43628705 -647.8125 204.875 C-646.84104522 206.23523387 -645.86836565 207.59459376 -644.89453125 208.953125 C-644.40936035 209.63439453 -643.92418945 210.31566406 -643.42431641 211.01757812 C-634.45540904 223.50087051 -624.5206895 235.18355043 -614.17578125 246.5390625 C-611.88487542 249.13021272 -609.72250787 251.79904445 -607.5625 254.5 C-603.82988406 259.11854224 -599.83389154 263.3044578 -595.5546875 267.41796875 C-593.5599467 269.43405998 -591.72067687 271.46004975 -589.87890625 273.609375 C-585.6435298 278.49595201 -581.09212415 283.05839314 -576.51196289 287.6184082 C-575.06475615 289.06025221 -573.62297974 290.50737116 -572.18164062 291.95507812 C-567.51804497 296.62202102 -562.79646371 301.16570442 -557.78540039 305.4597168 C-555.01199394 307.85236295 -552.35877099 310.36976163 -549.6875 312.875 C-544.91831879 317.30662542 -540.04943377 321.5465975 -534.96484375 325.6171875 C-532.80855338 327.35017449 -530.68139174 329.10097369 -528.56640625 330.8828125 C-506.95479768 348.97454138 -483.30577752 363.90317995 -457.90966797 376.07763672 C-456.01465806 376.99292021 -454.13412358 377.93366839 -452.25390625 378.87890625 C-441.92566012 383.98719394 -431.23998849 388.04918219 -420.4152832 391.96801758 C-408.85039296 396.21777113 -395.26502547 401.31982287 -388.5546875 412.3828125 C-385.60607664 418.96048288 -384.60443607 425.58184883 -386.80078125 432.53515625 C-387.80888617 435.0534724 -388.88358796 437.52794476 -390 440 C-394.43118417 449.93442902 -393.20318812 459.07793565 -389.8125 469.25 C-385.81645414 479.54181043 -379.6313092 487.11848394 -372 495 C-371.29617188 495.72960937 -370.59234375 496.45921875 -369.8671875 497.2109375 C-356.40008057 510.20880725 -328.73462128 529 -309 529 C-308.73832031 528.42378906 -308.47664063 527.84757813 -308.20703125 527.25390625 C-306.9250193 524.8599875 -305.43603288 523.01170197 -303.6875 520.9375 C-289.37337857 502.63566075 -290.4830459 478.19392992 -293 456.25 C-294.00779052 447.21482207 -294.2843941 438.20955162 -294.35449219 429.12585449 C-294.3678978 427.57279843 -294.38811838 426.0197823 -294.41601562 424.46691895 C-294.88727643 396.02849956 -283.36384821 370.14132365 -266 348 C-265.36755371 347.19095215 -264.73510742 346.3819043 -264.08349609 345.54833984 C-258.79148651 338.92238907 -253.11282407 332.800201 -247.09863281 326.83789062 C-245.62587477 325.37586839 -244.16414955 323.90342512 -242.703125 322.4296875 C-233.72658568 313.43839896 -223.99435161 305.56286785 -213.75 298.0625 C-212.93354004 297.46332764 -212.11708008 296.86415527 -211.27587891 296.24682617 C-201.97752061 289.46582829 -192.39002787 283.18105234 -182.71801758 276.95141602 C-161.04607777 262.98701851 -140.27112797 248.20107472 -121.51513672 230.43164062 C-120.15617466 229.14756819 -118.78398717 227.87752662 -117.41015625 226.609375 C-90.46413011 200.92985576 -71.48672565 164.43906303 -63.24609375 128.47265625 C-63.01474983 127.46515572 -63.01474983 127.46515572 -62.7787323 126.43730164 C-61.99984476 123.03060763 -61.23696539 119.62134691 -60.49780273 116.20581055 C-60.21751221 114.94679932 -59.93722168 113.68778809 -59.6484375 112.390625 C-59.40270996 111.25657227 -59.15698242 110.12251953 -58.90380859 108.95410156 C-58.01049705 106.03430965 -56.99174579 104.28204918 -55 102 C-51.88594129 102.25950489 -50.30629875 102.73082837 -47.9375 104.8125 C-39.22492373 119.14609322 -38.72019357 138.60938761 -38 155 C-17.56095528 111.5958149 -8.16996213 65.29710613 -4.73364258 17.60839844 C-3.65766901 3.65766901 -3.65766901 3.65766901 0 0 Z M3 76 C2.87995605 76.75804932 2.75991211 77.51609863 2.63623047 78.29711914 C-2.39132449 109.66140012 -9.58347421 139.92259577 -25 168 C-25.34450195 168.63147949 -25.68900391 169.26295898 -26.04394531 169.91357422 C-29.12088069 175.51768782 -32.2183415 181.08350881 -36 186.25 C-38.19605723 188.70285076 -38.19605723 188.70285076 -38 191 C-26.22213007 186.52602652 -17.79024832 166.2890327 -12.90625 155.44921875 C-2.40932211 131.06901499 5.37741102 102.70646919 4 76 C3.67 76 3.34 76 3 76 Z M62 107 C63 109 63 109 63 109 Z M61 109 C62 111 62 111 62 111 Z M60 111 C59.72961914 111.53141602 59.45923828 112.06283203 59.18066406 112.61035156 C46.01646442 138.37598959 30.98761406 162.13756225 13 184.77734375 C12.49984375 185.40882324 11.9996875 186.04030273 11.484375 186.69091797 C10.51931406 187.90772013 9.55074676 189.12175241 8.578125 190.33251953 C6.37698086 193.10256232 4.403344 195.73881992 3 199 C27.75204435 179.74840995 45.68599127 146.76500936 58.9140625 119.0234375 C59.33896973 118.13317871 59.76387695 117.24291992 60.20166016 116.32568359 C61.30071354 113.89029103 61.30071354 113.89029103 60 111 Z M-54 152 C-54.34667725 152.79994385 -54.69335449 153.5998877 -55.05053711 154.42407227 C-68.13133395 184.47162923 -84.20832432 209.25330899 -106.50390625 233.28125 C-108.61973881 235.5858188 -110.66445717 237.92705267 -112.6875 240.3125 C-116.14455336 244.28201068 -119.97676225 247.61805015 -124 251 C-124.91265625 251.80050781 -125.8253125 252.60101563 -126.765625 253.42578125 C-139.42875901 264.47594602 -153.18331414 273.95517855 -167.32421875 283 C-186.38935163 295.20301507 -205.29824229 307.63061318 -221.9296875 323.078125 C-223.82771064 324.84006346 -225.77249778 326.51613829 -227.75 328.1875 C-245.47005934 343.72387526 -260.50100578 362.03553709 -271.375 383 C-271.6846167 383.57927246 -271.9942334 384.15854492 -272.31323242 384.75537109 C-278.27133006 396.74934409 -279.62982654 408.99681365 -279.375 422.1875 C-279.36120574 423.66812451 -279.34819851 425.14875653 -279.3359375 426.62939453 C-279.19705431 438.42393008 -278.4524623 450.14704894 -277.4375 461.8984375 C-275.67031739 483.90169636 -277.91870873 505.02009356 -288.2578125 524.62890625 C-290.04197831 527.86822637 -290.04197831 527.86822637 -291 531 C-290.1234375 530.9278125 -289.246875 530.855625 -288.34375 530.78125 C-275.8931465 529.87023023 -263.47881921 529.89840641 -251 530 C-249.84612343 526.53837028 -250.20001078 525.79997125 -251.4375 522.5 C-252.47576279 519.70646782 -253 518.02090819 -253 515 C-252.01 515.433125 -251.02 515.86625 -250 516.3125 C-248.66698206 516.87574702 -247.33363053 517.43820498 -246 518 C-245.35160156 518.28617188 -244.70320312 518.57234375 -244.03515625 518.8671875 C-239.13919852 520.90313032 -235.29638412 521.28373486 -230 521 C-229.34 519.68 -228.68 518.36 -228 517 C-236.35885624 508.71430117 -236.35885624 508.71430117 -247 505 C-247 504.01 -247 503.02 -247 502 C-245.55367187 502.03480469 -245.55367187 502.03480469 -244.078125 502.0703125 C-242.81484375 502.08835937 -241.5515625 502.10640625 -240.25 502.125 C-238.37054687 502.15980469 -238.37054687 502.15980469 -236.453125 502.1953125 C-233.27179508 502.01537302 -231.63478104 501.68998582 -229 500 C-229.95478298 494.74832891 -233.15360682 491.5282063 -237 488 C-240.46243206 485.68856899 -244.07757222 483.83008884 -247.8125 482 C-248.76576172 481.51144531 -249.71902344 481.02289062 -250.70117188 480.51953125 C-255.14219017 477.99397786 -255.14219017 477.99397786 -260 477 C-259.67 476.34 -259.34 475.68 -259 475 C-256.99400779 474.5169123 -254.96852272 474.11376526 -252.9375 473.75 C-243.83926598 471.74918486 -238.60296166 467.63222238 -233.3125 460.0703125 C-228.63801929 452.69687567 -226 445.85756987 -226 437 C-230.29 437 -234.58 437 -239 437 C-236.8809966 432.76199321 -234.55241741 430.86920209 -230.9375 428.0625 C-220.78288404 419.80599558 -214.07500883 409.04070724 -209 397 C-209 396.34 -209 395.68 -209 395 C-214.94 394.01 -214.94 394.01 -221 393 C-218.76006625 388.5201325 -217.90609242 388.1574009 -213.625 386 C-201.11950289 378.95443883 -192.74087884 367.82986766 -185 356 C-184.40574219 355.09378906 -183.81148437 354.18757812 -183.19921875 353.25390625 C-181.30469043 350.25678701 -181.30469043 350.25678701 -180 347 C-180.9701533 344.30347134 -181.9891805 343.01049164 -184.0625 341 C-186.07607222 338.92147384 -186.59824094 337.81231342 -187 335 C-186.16855469 335.15855469 -185.33710937 335.31710937 -184.48046875 335.48046875 C-164.34254156 338.48646686 -150.8972343 331.30377188 -134.94360352 319.66040039 C-128.38696944 314.79380395 -122.21328369 309.69650066 -116.2578125 304.10546875 C-114.46805561 302.43647401 -112.66931944 300.88734333 -110.75 299.375 C-107.09839966 296.22134516 -104.09256407 292.69336895 -101 289 C-100.29746094 288.1853125 -99.59492187 287.370625 -98.87109375 286.53125 C-73.10057229 256.05480723 -61.23141186 214.75530672 -55 176 C-54.88430664 175.31212402 -54.76861328 174.62424805 -54.64941406 173.91552734 C-53.41918862 166.56520413 -52.6908494 159.45396446 -53 152 C-53.33 152 -53.66 152 -54 152 Z M85.43359375 178.51171875 C84.77488281 179.22972656 84.11617187 179.94773438 83.4375 180.6875 C77.26064477 187.00316096 70.2391859 192.14128569 63.15917969 197.39648438 C61.1539548 198.88566541 59.15809861 200.38651638 57.1640625 201.890625 C46.68773692 209.74127025 35.76413944 216.85100345 24.61328125 223.703125 C23.90163818 224.14197021 23.18999512 224.58081543 22.45678711 225.03295898 C21.12149051 225.85368016 19.78273499 226.66881536 18.43969727 227.47680664 C13.9098833 230.25387552 9.94281926 233.44238131 6 237 C6.66 237.33 7.32 237.66 8 238 C10.17035394 237.19785689 10.17035394 237.19785689 12.59375 235.89453125 C13.5331543 235.41153564 14.47255859 234.92854004 15.44042969 234.4309082 C16.45008789 233.8968335 17.45974609 233.36275879 18.5 232.8125 C19.53286133 232.26875732 20.56572266 231.72501465 21.62988281 231.16479492 C35.45528348 223.76076637 48.06743706 215.15699758 60 205 C61.68344206 203.66154684 63.37092561 202.32816042 65.0625 201 C78.92066577 190.62372047 78.92066577 190.62372047 89 177 C86.87703425 176.76852187 86.87703425 176.76852187 85.43359375 178.51171875 Z M-17 222 C-17.59425781 222.61746094 -18.18851563 223.23492187 -18.80078125 223.87109375 C-29.56208908 234.86670688 -41.43759254 243.81452664 -54.3515625 252.16796875 C-55.41117188 252.85503906 -56.47078125 253.54210937 -57.5625 254.25 C-58.51253906 254.85328125 -59.46257813 255.4565625 -60.44140625 256.078125 C-65.20525224 259.65646427 -67.96279152 264.42582181 -71.0625 269.4375 C-75.8470478 277.05221384 -81.33222661 284.02916843 -87 291 C-83.91720672 292.39044737 -83.91720672 292.39044737 -80.6640625 290.62890625 C-79.31146809 289.95244027 -77.96544294 289.26273608 -76.625 288.5625 C-75.91327637 288.19705078 -75.20155273 287.83160156 -74.46826172 287.45507812 C-63.88882016 281.94687145 -54.10206204 275.7428615 -45 268 C-44.25234375 267.39800781 -43.5046875 266.79601562 -42.734375 266.17578125 C-31.17450219 256.53581738 -24.11027423 244.53845075 -18 231 C-17.5771875 230.1028125 -17.154375 229.205625 -16.71875 228.28125 C-15.91394096 225.72685608 -16.0812792 224.48054616 -17 222 Z M-709 223 C-700.29873287 248.03359207 -670.79826418 273.23719111 -650 288 C-649.38914551 288.43441406 -648.77829102 288.86882812 -648.14892578 289.31640625 C-644.46264154 291.92273553 -640.74594817 294.47988537 -637 297 C-636.34 296.67 -635.68 296.34 -635 296 C-639.95117914 291.45694409 -644.93614968 287.00727233 -650.1875 282.8125 C-665.4702737 270.41002402 -680.50648578 256.22932026 -693 241 C-693.72574219 240.11699219 -694.45148438 239.23398437 -695.19921875 238.32421875 C-696.75088791 236.42887411 -698.30043761 234.53179195 -699.84765625 232.6328125 C-702.51412464 229.37110706 -705.20092644 226.14895776 -708 223 C-708.33 223 -708.66 223 -709 223 Z M-641 236 C-633.89118799 265.67329956 -606.34068847 298.94336744 -585.92578125 320.92578125 C-584.14285644 322.84613232 -582.44379168 324.8137434 -580.75 326.8125 C-573.11619737 335.54189468 -564.81978096 343.63140729 -555.73046875 350.83203125 C-552.84914348 353.11977878 -550.05251508 355.4915526 -547.25 357.875 C-529.01949594 373.02069866 -508.78647723 386.55534794 -487.98291016 397.90820312 C-483.46476713 400.39590759 -478.98776817 402.95805523 -474.5 405.5 C-472.50405002 406.62916041 -470.50795948 407.75807242 -468.51171875 408.88671875 C-467.56474121 409.42216309 -466.61776367 409.95760742 -465.64208984 410.50927734 C-463.37481089 411.78852381 -461.10442919 413.06191199 -458.83203125 414.33203125 C-430.09064945 430.45515129 -430.09064945 430.45515129 -426 440 C-424.2599047 446.45640056 -423.4294305 453.00127261 -422.625 459.625 C-417.74163521 496.8870615 -399.05706838 529.04404869 -369.7109375 552.515625 C-350.02450577 567.58251283 -324.56219657 582.3980895 -299 580 C-294.19200475 578.85679461 -290.44724242 576.79315616 -286.9375 573.3125 C-284.42513219 569.01716149 -284.07172341 565.86031612 -285 561 C-288.48109665 553.89856284 -293.96783813 549.53417157 -301.29627991 546.89625549 C-304.10478468 545.94163806 -306.92117085 545.01461272 -309.74487305 544.10595703 C-336.34885163 535.48277722 -360.95597901 522.6243252 -382 504 C-382.61617188 503.48953125 -383.23234375 502.9790625 -383.8671875 502.453125 C-396.84714248 490.84892562 -404.80049029 472.02503663 -406.25390625 455.03125 C-406.60814651 446.16381648 -404.46423143 438.72300492 -399.6875 431.25 C-397.55642094 427.14569959 -397.66501877 425.39758524 -399 421 C-402.0424944 415.43789056 -405.7078947 412.40796263 -411.3125 409.625 C-412.04758789 409.24690186 -412.78267578 408.86880371 -413.54003906 408.47924805 C-419.61476976 405.45877781 -425.87282361 403.10708165 -432.25 400.8125 C-475.03491531 385.40124809 -514.26322377 360.05821113 -549 331 C-549.60247559 330.49662109 -550.20495117 329.99324219 -550.82568359 329.47460938 C-554.57025333 326.3392385 -558.29079153 323.17710753 -562 320 C-562.67804688 319.42378906 -563.35609375 318.84757812 -564.0546875 318.25390625 C-574.61472232 309.16683766 -584.63610599 299.45531566 -594.5 289.625 C-595.61157471 288.52031372 -595.61157471 288.52031372 -596.74560547 287.39331055 C-601.36862952 282.75722711 -605.73664581 277.96675712 -610 273 C-611.04549798 271.80868595 -612.09234301 270.61855253 -613.140625 269.4296875 C-621.72267753 259.63854999 -629.87946666 249.59342867 -637.625 239.125 C-638.40875 238.09375 -639.1925 237.0625 -640 236 C-640.33 236 -640.66 236 -641 236 Z M-767 262 C-764.35546404 265.49369888 -761.67638724 268.27591573 -758.25 271 C-757.28191406 271.7734375 -756.31382812 272.546875 -755.31640625 273.34375 C-754.7867627 273.76527344 -754.25711914 274.18679688 -753.71142578 274.62109375 C-751.86111061 276.11190403 -750.03705461 277.6312336 -748.21484375 279.15625 C-737.43462073 288.13910838 -726.34583363 295.72882951 -714.0625 302.5 C-713.45978271 302.83878174 -712.85706543 303.17756348 -712.23608398 303.52661133 C-708.07084603 305.75195443 -704.62740737 306.57449128 -700 307 C-703.21613124 303.38890527 -706.84811795 301.245359 -711.0625 299 C-729.65790161 288.78329034 -746.89099708 276.91123633 -763.1796875 263.328125 C-764.89372509 261.80353069 -764.89372509 261.80353069 -767 262 Z M-28.6796875 267.65234375 C-29.40414062 268.40644531 -30.12859375 269.16054688 -30.875 269.9375 C-35.93993741 275.05059847 -41.32452933 279.58211563 -47 284 C-47.72058594 284.58394531 -48.44117188 285.16789062 -49.18359375 285.76953125 C-60.02384112 294.02048602 -73.28448711 299.91104566 -86.41455078 303.27905273 C-100.59714105 306.96642631 -108.67281051 314.96917436 -118 326 C-117.67 326.66 -117.34 327.32 -117 328 C-89.82165121 329.03068417 -69.09512396 322.22066839 -48.375 304.25 C-40.67295522 297.03542641 -35.32608781 289.0305963 -30.5625 279.6875 C-30.22001221 279.0176709 -29.87752441 278.3478418 -29.5246582 277.65771484 C-27.62561912 273.77641763 -26.47869191 270.34868 -26 266 C-27.27388262 265.88311993 -27.27388262 265.88311993 -28.6796875 267.65234375 Z M62.49609375 268.6328125 C60.71687731 269.19525496 58.93749224 269.75716424 57.15795898 270.31860352 C56.22345917 270.6140506 55.28895935 270.90949768 54.32614136 271.21389771 C37.66510715 276.468931 21.07883731 281.28284129 4 285 C1.44895544 285.5685266 -1.10056303 286.14268312 -3.64819336 286.72631836 C-5.1159258 287.06206392 -6.58538822 287.39038449 -8.05688477 287.70922852 C-11.92343181 288.57288686 -11.92343181 288.57288686 -15 291 C15.37315314 287.98371977 45.54476606 284.23020487 72 268 C72.33 267.34 72.66 266.68 73 266 C69.37508076 266 65.92770336 267.53453819 62.49609375 268.6328125 Z M-635 297 C-634.67 297.66 -634.34 298.32 -634 299 C-633.34 298.67 -632.68 298.34 -632 298 C-632.99 297.67 -633.98 297.34 -635 297 Z M-681 306 C-681.80058462 315.20672315 -677.88820393 322.76911505 -672.078125 329.7265625 C-662.93526403 339.72871492 -652.65171836 346.2983254 -641 353 C-640.30148926 353.40637695 -639.60297852 353.81275391 -638.88330078 354.23144531 C-629.12656418 359.89966696 -619.18110961 365.13633574 -609 370 C-608.31776367 370.3285498 -607.63552734 370.65709961 -606.93261719 370.99560547 C-588.32601307 379.8742575 -566.94895636 389 -546 389 C-546 388.34 -546 387.68 -546 387 C-547.45297485 386.4579895 -547.45297485 386.4579895 -548.93530273 385.9050293 C-623.75663512 357.95043471 -623.75663512 357.95043471 -653.80419922 329.85522461 C-655.99363567 327.81003602 -658.19420561 325.84606744 -660.54296875 323.984375 C-663.23021929 321.81406773 -665.59133844 319.4752605 -668 317 C-669.89208917 315.05880013 -671.78886705 313.12229738 -673.6875 311.1875 C-674.17283203 310.68541016 -674.65816406 310.18332031 -675.15820312 309.66601562 C-676.40124606 308.40582727 -677.69699892 307.19808956 -679 306 C-679.66 306 -680.32 306 -681 306 Z M-730 315 C-726.12516078 319.18332157 -721.99416798 322.20572209 -717.1875 325.25 C-716.44991455 325.72163574 -715.7123291 326.19327148 -714.95239258 326.67919922 C-709.7719986 329.95873838 -704.51954342 333.09865484 -699.1875 336.125 C-698.52451904 336.50301758 -697.86153809 336.88103516 -697.1784668 337.27050781 C-694.17788252 338.94116849 -691.41265128 340.43265747 -688 341 C-689.50109377 337.02035604 -691.65096771 335.64811351 -695.25 333.5 C-695.79849609 333.17177246 -696.34699219 332.84354492 -696.91210938 332.50537109 C-704.55105843 327.99609865 -712.36049991 323.76922898 -720.15625 319.5390625 C-721.37538086 318.87704834 -721.37538086 318.87704834 -722.61914062 318.20166016 C-725.03413045 316.98277378 -727.47477931 315.96687894 -730 315 Z M-54.125 322 C-74.47086467 336.47404226 -96.56373844 339.94719054 -121 341 C-121.8678228 344.10051447 -122.71686767 347.20586665 -123.5625 350.3125 C-123.80935547 351.19357422 -124.05621094 352.07464844 -124.31054688 352.98242188 C-124.53935547 353.82998047 -124.76816406 354.67753906 -125.00390625 355.55078125 C-125.21861572 356.33106689 -125.4333252 357.11135254 -125.65454102 357.9152832 C-126.19753457 360.18583794 -126.19753457 360.18583794 -125 363 C-101.85212767 363.49140735 -77.86489537 355.18075729 -60.96655273 339.16870117 C-55.21745692 333.43965451 -49.9052234 327.04427656 -48 319 C-50.82496577 319 -51.88055459 320.29574314 -54.125 322 Z M6.78515625 337.875 C5.92941513 337.96378418 5.07367401 338.05256836 4.19200134 338.14404297 C1.48180428 338.42600319 -1.22784075 338.71292207 -3.9375 339 C-5.78447087 339.1930372 -7.63147579 339.38574887 -9.47851562 339.578125 C-13.98607972 340.04831874 -18.49315576 340.52295772 -23 341 C-21.10736717 343.32153993 -21.10736717 343.32153993 -17.9375 343.265625 C-4.20496664 343.21113082 10.00796546 342.89649543 23 338 C23 337.67 23 337.34 23 337 C17.52896751 336.89767794 12.2228283 337.2926257 6.78515625 337.875 Z M-135 338 C-137.12382231 339.14850477 -139.14312859 340.34771967 -141.1875 341.625 C-149.5001912 346.61065444 -158.18471764 349.79027389 -167.69921875 351.76953125 C-171.90398282 353.33698768 -172.75389931 354.91438829 -174.875 358.8125 C-175.5379444 359.98648475 -176.20474525 361.15829851 -176.875 362.328125 C-177.21660156 362.93205078 -177.55820312 363.53597656 -177.91015625 364.15820312 C-179.73385542 367.24018936 -181.80221378 370.14457736 -183.875 373.0625 C-186.17027909 376.29748394 -188.35285468 379.38494948 -190 383 C-171.73674013 382.38557478 -158.20798196 379.3988967 -145.0703125 365.5078125 C-138.4462023 357.48389034 -134.89489855 349.17831221 -133 339 C-133.66 338.67 -134.32 338.34 -135 338 Z M-665 347 C-666.21930214 348.92282103 -666.21930214 348.92282103 -665.609375 350.890625 C-656.07459877 377.06791973 -627.82112622 393.8740216 -604 405 C-587.21210086 412.34068578 -566.96625023 416.21586371 -548.6875 416.125 C-547.49157227 416.13080078 -547.49157227 416.13080078 -546.27148438 416.13671875 C-542.93146561 416.13110055 -540.18966774 416.06322258 -537 415 C-537.33 413.68 -537.66 412.36 -538 411 C-544.67449702 409.54461541 -551.35346205 408.50042407 -558.12451172 407.60595703 C-579.52381303 404.76712716 -598.28854809 399.99832045 -616 387 C-616.81726563 386.40703125 -617.63453125 385.8140625 -618.4765625 385.203125 C-627.75622864 378.13002442 -636.26907742 369.57381047 -643.75 360.625 C-648.64606711 354.85907325 -654.71850113 349.36350291 -662 347 C-662.99 347 -663.98 347 -665 347 Z M-745 358 C-740.95424604 362.04575396 -734.68563201 363.73776388 -729.4375 365.9375 C-728.41981033 366.36560974 -728.41981033 366.36560974 -727.38156128 366.80236816 C-716.42012186 371.39084045 -705.33314161 375.48823108 -694.0625 379.25 C-693.36212616 379.48596893 -692.66175232 379.72193787 -691.94015503 379.96505737 C-685.02163044 382.28386044 -678.32401394 384.51360316 -671 385 C-671.495 383.515 -671.495 383.515 -672 382 C-674.68928863 380.77957136 -677.28767898 379.76268162 -680.0703125 378.80078125 C-681.33393112 378.35029167 -681.33393112 378.35029167 -682.62307739 377.89070129 C-693.30523223 374.12029668 -704.09237285 370.65708918 -714.875 367.1875 C-717.97751363 366.18655679 -721.07965435 365.18448786 -724.18118286 364.18049622 C-726.08930881 363.56306802 -727.99803021 362.94747596 -729.90744019 362.33403015 C-733.29639169 361.23928693 -736.63387514 360.1501777 -739.93017578 358.7980957 C-742.09679392 357.82011597 -742.09679392 357.82011597 -745 358 Z M-5.07421875 360.58984375 C-6.64248413 361.14273071 -6.64248413 361.14273071 -8.24243164 361.70678711 C-9.94774048 362.31598999 -9.94774048 362.31598999 -11.6875 362.9375 C-23.91125681 367.18774564 -36.21940949 370.48404556 -48.81323242 373.43530273 C-49.47872101 373.59357544 -50.14420959 373.75184814 -50.8298645 373.91491699 C-52.63958984 374.34399013 -54.45168466 374.76303411 -56.26391602 375.18139648 C-59.11505129 375.79854746 -59.11505129 375.79854746 -61 378 C-38.15084893 379.3070489 -16.98356381 369.96962718 3 360 C-0.62367324 358.79210892 -1.55317615 359.31017173 -5.07421875 360.58984375 Z M-81 365 C-81.969375 365.556875 -82.93875 366.11375 -83.9375 366.6875 C-96.39743469 372.77710413 -109.39657523 374.72027897 -123.08935547 375.92407227 C-130.84609603 376.64940069 -136.76110481 377.75362497 -142 384 C-142 384.66 -142 385.32 -142 386 C-124.07221719 390.01582335 -109.27269512 390.16222145 -93 380 C-88.07844646 376.14310906 -83.62347248 372.11685252 -80 367 C-80.495 366.01 -80.495 366.01 -81 365 Z M-194 389 C-195.00399524 391.62353518 -196.00334445 394.24867795 -197 396.875 C-197.28617188 397.62136719 -197.57234375 398.36773437 -197.8671875 399.13671875 C-199.43336648 402.95985011 -199.43336648 402.95985011 -200 407 C-193.88573818 410.05713091 -183.80918102 407.20782673 -177.5625 405.3125 C-171.36234248 403.02779576 -166.56901026 400.13802052 -163.5625 394.125 C-163.2840625 393.073125 -163.2840625 393.073125 -163 392 C-167.43351655 390.87416607 -171.71550274 390.96278593 -176.25 391.0625 C-182.48318695 391.14255806 -187.97059171 390.75400968 -194 389 Z M-648 396 C-643.91818877 412.09889185 -632.63191907 425.2078389 -618.890625 434.3125 C-603.36482442 443.37621061 -584.98993238 448.61252453 -567 449 C-565.80503906 449.05800781 -565.80503906 449.05800781 -564.5859375 449.1171875 C-553.96792463 449.42846475 -543.28004601 447.52492358 -533 445 C-533 443.68 -533 442.36 -533 441 C-537.11982087 440.17603583 -540.63285642 439.97309516 -544.8125 440.4375 C-570.5929614 443.08981084 -594.21671919 437.95023498 -614.6875 421.5625 C-618.42331885 418.43007886 -621.93590373 415.18512216 -625.32421875 411.68359375 C-627.77483949 409.2215482 -630.38441446 406.96395636 -633.0234375 404.70703125 C-634.32270468 403.58493686 -635.59996166 402.43674486 -636.8515625 401.26171875 C-637.43679688 400.72160156 -638.02203125 400.18148438 -638.625 399.625 C-639.13289062 399.14289063 -639.64078125 398.66078125 -640.1640625 398.1640625 C-642.67598132 396.57139908 -645.07895025 396.35183512 -648 396 Z M-530 398 C-529.52907471 402.94471556 -528.11029884 406.21696799 -525 410 C-524.43796875 410.69222656 -523.8759375 411.38445312 -523.296875 412.09765625 C-514.43441721 421.95798619 -501.07228359 428.14905719 -488 430 C-486.00035092 430.03746415 -483.99944984 430.04690791 -482 430 C-486.20581895 426.50241481 -491.08775379 424.40441167 -495.98046875 422.04882812 C-502.2469347 418.98640267 -507.70050073 415.46642885 -512.875 410.75 C-513.7309375 409.97269531 -514.586875 409.19539063 -515.46875 408.39453125 C-518.50727986 405.52011951 -521.3857752 402.51722835 -524.2109375 399.43359375 C-526.13814945 397.58312119 -526.13814945 397.58312119 -530 398 Z M-152 399 C-152.83905565 400.12073862 -153.67107831 401.24674547 -154.5 402.375 C-154.9640625 403.00148438 -155.428125 403.62796875 -155.90625 404.2734375 C-157.17838101 405.94094613 -157.17838101 405.94094613 -157 408 C-154.91780951 408.81542431 -152.83420239 409.62723189 -150.75 410.4375 C-149.58984375 410.88996094 -148.4296875 411.34242188 -147.234375 411.80859375 C-140.61413708 414.24720796 -134.42455471 415.38729714 -127.8125 412.375 C-123.88318761 410.20496554 -121.55420279 407.67166651 -119 404 C-119 403.34 -119 402.68 -119 402 C-119.75095947 401.94465088 -120.50191895 401.88930176 -121.27563477 401.83227539 C-124.70477678 401.57813754 -128.13363525 401.32035063 -131.5625 401.0625 C-132.74392578 400.97548828 -133.92535156 400.88847656 -135.14257812 400.79882812 C-140.79817509 400.3710939 -146.40067474 399.91266535 -152 399 Z M-43.8125 400.6875 C-59.83452166 405.4335534 -76.27987342 407.48105939 -92.89697266 408.87329102 C-94.03827637 408.97826904 -95.17958008 409.08324707 -96.35546875 409.19140625 C-97.88143677 409.31817749 -97.88143677 409.31817749 -99.43823242 409.44750977 C-102.2557411 410.05515507 -103.23716334 410.77272585 -105 413 C-81.54603716 418.53960265 -56.33257781 408.91922434 -35 400 C-38.76799653 398.74400116 -40.06593999 399.46884868 -43.8125 400.6875 Z M-161 418 C-164.19740493 421.31815154 -164.19740493 421.31815154 -165.12109375 425.67578125 C-165.08113281 426.44277344 -165.04117188 427.20976562 -165 428 C-153.73380521 434.6241314 -153.73380521 434.6241314 -141 435 C-137.98018899 434.00804027 -137.98018899 434.00804027 -136 432 C-135.29021717 430.35123363 -134.61787496 428.68536428 -134 427 C-138.31163984 425.49751939 -142.624451 423.99843017 -146.9375 422.5 C-148.16919922 422.07074219 -149.40089844 421.64148438 -150.66992188 421.19921875 C-151.83974609 420.79316406 -153.00957031 420.38710938 -154.21484375 419.96875 C-155.29886475 419.59169922 -156.38288574 419.21464844 -157.49975586 418.82617188 C-159.71938299 417.94770814 -159.71938299 417.94770814 -161 418 Z M-185.4609375 417.96484375 C-188.3086811 417.93628472 -191.15236098 417.96600961 -194 418 C-194.97195313 417.98066406 -195.94390625 417.96132813 -196.9453125 417.94140625 C-202.40082729 418.01827766 -202.40082729 418.01827766 -206.97290039 420.69165039 C-210.46514915 425.19142997 -212.11390045 429.38803621 -213 435 C-211.93864721 436.29188473 -211.93864721 436.29188473 -209.48046875 436.0546875 C-198.22537754 435.44053068 -188.79804389 432.58989846 -180.4921875 424.71484375 C-178.68117853 422.63360569 -177.65077398 420.68444265 -177 418 C-177.763125 418 -178.52625 418 -179.3125 418 C-181.36201267 418 -183.41163393 417.99411952 -185.4609375 417.96484375 Z M-732 421 C-727.26091497 424.15939002 -721.86334835 425.01148504 -716.375 426.375 C-715.13057129 426.68518066 -713.88614258 426.99536133 -712.60400391 427.31494141 C-695.38212135 431.4933153 -677.18066182 435.26954258 -659.375 435.0625 C-658.35148437 435.05347656 -657.32796875 435.04445313 -656.2734375 435.03515625 C-655.52320313 435.02355469 -654.77296875 435.01195312 -654 435 C-659.64004537 429.35995463 -671.83998207 429.27823466 -679.50390625 428.24609375 C-680.54844467 428.09970963 -681.59298309 427.9533255 -682.66917419 427.80250549 C-685.96613852 427.34142488 -689.26420758 426.88897269 -692.5625 426.4375 C-695.86413557 425.98097576 -699.16549253 425.52255842 -702.46653748 425.06178284 C-704.50754181 424.77736049 -706.54891163 424.49554303 -708.5907135 424.21690369 C-714.29725642 423.42703369 -719.94916529 422.48928612 -725.60289001 421.38050842 C-728.25390266 420.89548435 -728.25390266 420.89548435 -732 421 Z M-518 435 C-517.44786621 442.36178391 -513.68961554 447.66831596 -508.4375 452.625 C-496.22615286 462.67870309 -481.5563388 466.35582769 -466 465 C-462.14638643 464.02408487 -459.30847514 462.20565009 -456 460 C-456 459.34 -456 458.68 -456 458 C-457.93939453 457.96132813 -457.93939453 457.96132813 -459.91796875 457.921875 C-479.90723676 457.34596527 -493.34162116 452.15844855 -508.43359375 439.171875 C-512.60671218 435.58253673 -512.60671218 435.58253673 -518 435 Z M-179 441 C-179 441.99 -179 442.98 -179 444 C-175.83847203 445.46965886 -172.66994365 446.92359322 -169.5 448.375 C-168.613125 448.7875 -167.72625 449.2 -166.8125 449.625 C-159.21665721 453.08781069 -152.44273285 456.03250976 -144 454 C-140.6649267 452.75056659 -140.6649267 452.75056659 -138 451 C-137.67 450.01 -137.34 449.02 -137 448 C-139.57348134 446.71325933 -141.62458241 446.81719023 -144.5 446.6875 C-153.54235794 445.97362964 -160.29876688 443.14381384 -167.11328125 437.171875 C-172.34994937 433.9192861 -175.54604712 436.75657218 -179 441 Z M-101.63378906 444.20751953 C-103.13855034 444.23604115 -104.64347013 444.25709713 -106.1484375 444.27099609 C-108.34711878 444.29239329 -110.54403573 444.33892601 -112.7421875 444.390625 C-114.0401123 444.41157227 -115.33803711 444.43251953 -116.67529297 444.45410156 C-120.50296513 445.08258408 -121.68851927 445.94966717 -124 449 C-124.7872678 451.1381966 -124.7872678 451.1381966 -125 453 C-108.08641764 453.99752452 -93.06352655 449.92107237 -77 445 C-77 444.67 -77 444.34 -77 444 C-85.21293608 443.96747352 -93.42277576 444.03231753 -101.63378906 444.20751953 Z M-628 447 C-627.32911186 454.17334237 -621.16059712 458.54741636 -616 463 C-596.75826933 478.66365006 -576.64426725 480.59640668 -552.875 478.3125 C-541.43476476 477.09780087 -530.21091764 474.51882217 -519 472 C-519 471.67 -519 471.34 -519 471 C-519.95551758 471.01571045 -520.91103516 471.0314209 -521.89550781 471.04760742 C-558.2453004 471.59222635 -558.2453004 471.59222635 -574 468 C-575.22460938 467.7215625 -576.44921875 467.443125 -577.7109375 467.15625 C-593.67110926 462.99584567 -608.82248818 455.62507119 -623.26171875 447.76953125 C-625.14036857 446.79759828 -625.14036857 446.79759828 -628 447 Z M-216.9296875 451.734375 C-217.64506146 453.14370547 -218.33757201 454.56502215 -219 456 C-219.53367187 456.87269531 -220.06734375 457.74539063 -220.6171875 458.64453125 C-221.03226563 459.35996094 -221.44734375 460.07539063 -221.875 460.8125 C-222.30554688 461.54082031 -222.73609375 462.26914062 -223.1796875 463.01953125 C-224.31466619 465.14799102 -224.31466619 465.14799102 -223 468 C-212.62247716 467.01644368 -204.36695247 463.10968881 -197.375 455.25 C-195.60402408 453.05931302 -194.91625733 451.74877198 -194 449 C-196.2707796 446.7292204 -201.20608372 447.53388321 -204.25 447.4375 C-205.10980469 447.37498047 -205.96960938 447.31246094 -206.85546875 447.24804688 C-211.79291638 447.12251855 -214.21057036 447.39852671 -216.9296875 451.734375 Z M-182 455 C-184.31 458.63 -186.62 462.26 -189 466 C-183.26292684 471.73707316 -177.63695731 473.27956487 -169.5625 473.5 C-159.83551113 473.21706853 -153.69524517 471.08286463 -147 464 C-147.70495605 463.83395264 -148.40991211 463.66790527 -149.13623047 463.49682617 C-152.38322804 462.73015181 -155.62911119 461.95885448 -158.875 461.1875 C-159.98359375 460.92646484 -161.0921875 460.66542969 -162.234375 460.39648438 C-168.90090357 458.80828198 -175.456204 457.03652716 -182 455 Z M-231 474 C-231.43062816 478.02324413 -231.43062816 478.02324413 -228.9375 480.4375 C-222.01086728 486.47988173 -217.14696927 489.43496855 -207.7421875 489.34765625 C-203.36034741 488.79212382 -201.78817462 487.39102318 -199 484 C-198.33159146 481.37014192 -198.33159146 481.37014192 -199 479 C-201.96000723 476.03999277 -205.27367003 476.61360943 -209.25 476.5 C-214.59539208 476.34413093 -218.91879106 475.84101773 -224 474 C-226.33212027 473.92477031 -228.6685311 473.90674124 -231 474 Z M-496 475 C-493.81179668 484.64177087 -488.40867086 491.09171386 -480.125 496.375 C-469.80465311 502.01282227 -458.685245 503.99371059 -447.0390625 501.3203125 C-444.99194652 500.64224569 -442.98749946 499.83684188 -441 499 C-441 498.34 -441 497.68 -441 497 C-441.56283691 496.94577881 -442.12567383 496.89155762 -442.70556641 496.83569336 C-460.860136 494.97287987 -472.81386821 489.76916857 -487.40527344 478.91235352 C-488.09008789 478.40631592 -488.77490234 477.90027832 -489.48046875 477.37890625 C-490.39155396 476.69163452 -490.39155396 476.69163452 -491.32104492 475.99047852 C-493.10575593 474.74594554 -493.10575593 474.74594554 -496 475 Z M-139.75 480.375 C-141.53219845 483.51629368 -141.53219845 483.51629368 -142 487 C-136.80357006 487.20167257 -132.28336522 486.53951462 -127.3125 485.125 C-126.66216797 484.95097656 -126.01183594 484.77695312 -125.34179688 484.59765625 C-122.03932366 483.68871867 -118.99094403 482.68098626 -116 481 C-118.53758045 477.19362933 -119.55983872 476.99520856 -124 476 C-130.74513126 474.96513055 -135.64486869 474.28572189 -139.75 480.375 Z M-185.6875 484.5625 C-187.32696742 487.60722522 -188.16353945 490.65415781 -189 494 C-179.38229487 496.97017364 -171.33295699 498.85231171 -162 494 C-159.47409152 492.22845348 -159.47409152 492.22845348 -158 490 C-158 488.68 -158 487.36 -158 486 C-161.39499304 485.49418146 -164.79111482 484.99637756 -168.1875 484.5 C-169.14720703 484.35691406 -170.10691406 484.21382812 -171.09570312 484.06640625 C-172.02705078 483.93105469 -172.95839844 483.79570313 -173.91796875 483.65625 C-174.77156982 483.53056641 -175.6251709 483.40488281 -176.50463867 483.27539062 C-181.49909167 482.46813663 -181.49909167 482.46813663 -185.6875 484.5625 Z M-635.34765625 484.390625 C-636.1923497 484.53651062 -637.03704315 484.68239624 -637.90733337 484.83270264 C-639.70735135 485.14450163 -641.50719706 485.45729641 -643.30688477 485.77099609 C-645.9986994 486.23890965 -648.6916712 486.6996751 -651.38476562 487.16015625 C-662.36138642 489.05895468 -673.19069991 491.30674393 -684 494 C-684 494.33 -684 494.66 -684 495 C-665.83330377 496.03481181 -641.2122799 493.6439665 -625 485 C-625 484.34 -625 483.68 -625 483 C-628.49003128 483 -631.91589784 483.79602742 -635.34765625 484.390625 Z M-606 486 C-604.61899004 493.73365578 -601.86589887 499.03286106 -595.546875 503.8828125 C-579.93004037 514.18992336 -565.25590143 517.52873905 -546.78515625 514.1640625 C-533.78604825 511.39680393 -521.36427206 506.80285825 -509 502 C-509 501.67 -509 501.34 -509 501 C-510.52089169 501.12428792 -512.04170545 501.24952904 -513.5625 501.375 C-515.19058594 501.50841797 -515.19058594 501.50841797 -516.8515625 501.64453125 C-520.05670397 501.91337561 -523.25873368 502.20996628 -526.4609375 502.51171875 C-552.70686474 504.95931163 -575.6156413 504.76994887 -598 489 C-598.67933594 488.43539063 -599.35867188 487.87078125 -600.05859375 487.2890625 C-602.16698777 485.63123203 -602.16698777 485.63123203 -606 486 Z M-216 498 C-216 500.64 -216 503.28 -216 506 C-212.6868604 507.04127245 -211.39801692 507.18574123 -208.1875 505.6875 C-207.465625 505.130625 -206.74375 504.57375 -206 504 C-206 503.34 -206 502.68 -206 502 C-207.28913487 501.32845067 -208.58140204 500.66291141 -209.875 500 C-210.59429688 499.62875 -211.31359375 499.2575 -212.0546875 498.875 C-213.94848977 497.86326254 -213.94848977 497.86326254 -216 498 Z M-456 519 C-455.09990627 526.65079672 -449.66532266 532.20709395 -444 537 C-433.90689903 544.09113364 -425.25830478 545.66219486 -413 545 C-412.01 544.67 -411.02 544.34 -410 544 C-410 543.34 -410 542.68 -410 542 C-411.77503906 541.47212891 -411.77503906 541.47212891 -413.5859375 540.93359375 C-422.80894398 538.09394284 -430.4735724 535.21171509 -438 529 C-439.68236017 527.63850766 -441.37082791 526.2859526 -443.0690918 524.94433594 C-444.20628243 524.04299173 -445.33339732 523.12874279 -446.44848633 522.20019531 C-448.99013044 520.16372025 -450.60436393 519.03908178 -453.88671875 518.71484375 C-454.58410156 518.80894531 -455.28148437 518.90304687 -456 519 Z M-185 519 C-183.10466291 520.89533709 -181.7695432 521.73802777 -179.41015625 522.91015625 C-178.70826172 523.26013672 -178.00636719 523.61011719 -177.28320312 523.97070312 C-176.18395508 524.51114258 -176.18395508 524.51114258 -175.0625 525.0625 C-174.33353516 525.42666016 -173.60457031 525.79082031 -172.85351562 526.16601562 C-169.91196603 527.62465754 -167.12156468 528.95947844 -164 530 C-164 530.99 -164 531.98 -164 533 C-165.62228516 532.7834375 -165.62228516 532.7834375 -167.27734375 532.5625 C-180.87224897 530.87870668 -194.31552893 530.7821211 -208 531 C-208.33 531.66 -208.66 532.32 -209 533 C-207.97519531 533.26554688 -206.95039062 533.53109375 -205.89453125 533.8046875 C-204.53381011 534.16129028 -203.17313547 534.51807051 -201.8125 534.875 C-200.80219727 535.13603516 -200.80219727 535.13603516 -199.77148438 535.40234375 C-192.10246394 537.42247596 -192.10246394 537.42247596 -189 539 C-188.505 540.485 -188.505 540.485 -188 542 C-189.2060791 542.10489746 -189.2060791 542.10489746 -190.43652344 542.21191406 C-217.64163013 544.35622579 -217.64163013 544.35622579 -244 551 C-243.17375353 553.23672031 -243.17375353 553.23672031 -240.73095703 553.77783203 C-239.74981934 554.01872559 -238.76868164 554.25961914 -237.7578125 554.5078125 C-236.69175781 554.77207031 -235.62570312 555.03632812 -234.52734375 555.30859375 C-233.40457031 555.57800781 -232.28179688 555.84742188 -231.125 556.125 C-230.00996094 556.40214844 -228.89492188 556.67929687 -227.74609375 556.96484375 C-221.93766313 558.46869345 -221.93766313 558.46869345 -216 559 C-216 560.32 -216 561.64 -216 563 C-232.29901864 565.95203806 -248.46743591 567.35032323 -265 568 C-257.64238849 574.21956369 -249.40141154 577.30466349 -240 579 C-240 579.99 -240 580.98 -240 582 C-241.175625 582.350625 -242.35125 582.70125 -243.5625 583.0625 C-250.64173168 585.39955405 -257.29319696 588.77472581 -264 592 C-263.67 592.66 -263.34 593.32 -263 594 C-255.63014076 595.49353101 -247.90224365 595.05346796 -240.4375 594.6875 C-239.47392578 594.65205078 -238.51035156 594.61660156 -237.51757812 594.58007812 C-231.18328216 594.29390292 -225.17640958 593.42987302 -219 592 C-220.41267425 596.49487261 -222.53910596 598.84674098 -226 602 C-226.49226074 602.45407227 -226.98452148 602.90814453 -227.49169922 603.37597656 C-231.97026713 607.37695613 -236.71191309 610.37954419 -241.9375 613.3125 C-243.46927404 614.18037859 -244.99933337 615.05129327 -246.52734375 615.92578125 C-247.52882446 616.48906128 -247.52882446 616.48906128 -248.55053711 617.0637207 C-249.26802124 617.52717896 -249.26802124 617.52717896 -250 618 C-250 618.33 -250 618.66 -250 619 C-236.87286383 620.4967767 -224.82103809 619.1490269 -212 616 C-214.02247579 620.47039148 -216.32803239 623.7474611 -219.6875 627.3125 C-222.50340518 629.80390684 -222.50340518 629.80390684 -224 633 C-211.73244611 633.6273181 -199.31289024 631.94938948 -188 627 C-188.15597656 627.60328125 -188.31195312 628.2065625 -188.47265625 628.828125 C-188.66730469 629.62734375 -188.86195313 630.4265625 -189.0625 631.25 C-189.25972656 632.03890625 -189.45695313 632.8278125 -189.66015625 633.640625 C-190.01847417 636.12825747 -189.67152083 637.61334893 -189 640 C-176.70420685 634.0319557 -176.70420685 634.0319557 -165 627 C-163.84429296 630.46712111 -163.67164707 633.5414956 -163.4375 637.1875 C-163.35371094 638.45980469 -163.26992188 639.73210937 -163.18359375 641.04296875 C-163.12300781 642.01878906 -163.06242188 642.99460937 -163 644 C-158.25480242 639.58205743 -154.47767576 634.57493047 -150.625 629.375 C-149.97144531 628.51648438 -149.31789063 627.65796875 -148.64453125 626.7734375 C-148.03222656 625.9484375 -147.41992188 625.1234375 -146.7890625 624.2734375 C-146.22912598 623.52497559 -145.66918945 622.77651367 -145.09228516 622.00537109 C-144.73183105 621.34359863 -144.37137695 620.68182617 -144 620 C-144.33 619.01 -144.66 618.02 -145 617 C-153.25 616.01 -161.5 615.02 -170 614 C-166.91587889 610.91587889 -165.42090579 610.22026526 -161.3984375 608.87890625 C-160.27542236 608.50241943 -159.15240723 608.12593262 -157.99536133 607.73803711 C-156.80064209 607.35010986 -155.60592285 606.96218262 -154.375 606.5625 C-153.16416748 606.16361572 -151.95333496 605.76473145 -150.70581055 605.35375977 C-141.56606475 602.39147302 -132.41555668 599.8990474 -123 598 C-127.01357007 593.81525056 -127.01357007 593.81525056 -132 591 C-132 589 -132 589 -130.5 587.375 C-129.7575 586.694375 -129.7575 586.694375 -129 586 C-131.31 585.67 -133.62 585.34 -136 585 C-136 584.01 -136 583.02 -136 582 C-134.68 581.67 -133.36 581.34 -132 581 C-133.27966007 576.1140252 -135.0459466 572.2083328 -139 569 C-147.70500278 564.12409654 -158.98001312 561 -169 561 C-169 560.01 -169 559.02 -169 558 C-168.44650879 557.9498877 -167.89301758 557.89977539 -167.32275391 557.84814453 C-153.0653616 556.57656718 -153.0653616 556.57656718 -139 554 C-140.98 551.69 -142.96 549.38 -145 547 C-143.535625 547.33 -142.07125 547.66 -140.5625 548 C-135.42699927 548.95667801 -130.56998058 549.08773188 -125.375 549 C-115.20918896 548.88234786 -109.41618675 549.82039132 -101.1328125 555.72265625 C-97.9393579 557.63521972 -95.61566953 557.62578896 -92 557 C-89.12853006 555.63002843 -89.12853006 555.63002843 -87 554 C-87.94866184 546.79017002 -92.87777668 542.39866046 -98.4609375 538.109375 C-122.32393928 522.93004435 -157.22965584 518.13066749 -185 519 Z M-482.81640625 528.265625 C-484.22597819 528.7475082 -485.63573474 529.22885164 -487.0456543 529.7097168 C-487.78359222 529.96200043 -488.52153015 530.21428406 -489.28182983 530.47421265 C-538.27907544 547.14099948 -538.27907544 547.14099948 -560 537 C-560.83789062 536.6184375 -561.67578125 536.236875 -562.5390625 535.84375 C-564.05724685 535.15141837 -565.57318359 534.45411818 -567.0859375 533.75 C-569.46422749 532.81809862 -571.47238714 532.67385641 -574 533 C-570.56797668 540.80315749 -563.32089008 544.68644756 -555.80859375 547.95703125 C-542.67366096 552.83467667 -527.21220914 552.7625405 -514 548 C-513.39188477 547.7848877 -512.78376953 547.56977539 -512.15722656 547.34814453 C-503.22674074 544.12555619 -494.91371909 540.04433304 -486.6875 535.3125 C-485.88111084 534.84908203 -485.07472168 534.38566406 -484.24389648 533.90820312 C-480.36249227 531.61214956 -476.99996129 529.43427204 -474 526 C-477.1174175 526 -479.898923 527.25420429 -482.81640625 528.265625 Z M-603.125 547.875 C-604.37990234 548.42220703 -604.37990234 548.42220703 -605.66015625 548.98046875 C-606.45550781 549.33496094 -607.25085938 549.68945312 -608.0703125 550.0546875 C-608.80008301 550.37937012 -609.52985352 550.70405273 -610.28173828 551.03857422 C-612.17847154 551.88846264 -612.17847154 551.88846264 -613 554 C-605.79803752 553.37374239 -598.12644176 551.50144176 -592.875 546.25 C-592.25625 545.5075 -591.6375 544.765 -591 544 C-595.5182871 544 -599.04911438 546.04307007 -603.125 547.875 Z M-427 557 C-427 563.78870087 -425.01293231 567.17035267 -420.29296875 572.015625 C-413.21830949 578.13815805 -405.15607499 579.11345818 -396 579 C-390.53477228 578.39727742 -385.72156585 576.87900357 -381 574 C-380.34 573.01 -379.68 572.02 -379 571 C-381.79006932 570.21487653 -384.30071124 569.86978495 -387.1953125 569.82421875 C-400.72637255 569.46972916 -409.23520102 567.19411242 -420.5546875 559.48828125 C-422.78367048 558.13166381 -424.45354255 557.44414956 -427 557 Z M-125.75 561.6875 C-127.30456029 563.96521436 -127.30456029 563.96521436 -126.4375 566.625 C-124.78703916 569.35184835 -124.02347612 570.07616007 -121 571 C-117.55077635 571.36693869 -115.41582397 571.16632959 -112.1875 569.875 C-109.70235452 568.1085177 -109.70235452 568.1085177 -109.1875 564.8125 C-109.125625 563.884375 -109.06375 562.95625 -109 562 C-111.59283329 563.07289654 -112.85703487 563.79746606 -114.5 566.125 C-114.995 566.74375 -115.49 567.3625 -116 568 C-117.32 568 -118.64 568 -120 568 C-120.66 565.36 -121.32 562.72 -122 560 C-124.16523212 559.76862148 -124.16523212 559.76862148 -125.75 561.6875 Z M-464.75 563.8125 C-488.9348789 570.40362057 -510.6652365 572.4063603 -534.9375 565.25 C-539.40938377 563.97326395 -542.4962283 563.89907803 -547 565 C-544.53223553 571.28158228 -538.65474618 574.04597513 -532.8671875 576.828125 C-508.00882325 586.98821938 -477.08214542 578.22197174 -453.375 568.2734375 C-450.60688811 566.78921961 -448.3293584 565.1047417 -446 563 C-446 562.34 -446 561.68 -446 561 C-452.74986814 560.64349288 -458.28818071 561.95251953 -464.75 563.8125 Z M-101 582 C-101 582.33 -101 582.66 -101 583 C-100.08822998 583.0093457 -99.17645996 583.01869141 -98.23706055 583.02832031 C-94.80159806 583.07275848 -91.36730433 583.13455592 -87.93237305 583.20751953 C-86.45559785 583.23546503 -84.97868043 583.25680872 -83.50170898 583.27099609 C-71.0599796 583.39756506 -60.9541914 585.03664688 -51 593 C-49.43025553 586.87799656 -50.12520723 581.37462698 -53.19140625 575.85546875 C-57.03240798 570.38177963 -62.00095596 565.99952202 -68 563 C-82.27639488 560.54144276 -92.25126182 572.31989528 -101 582 Z M-561.5 585.125 C-562.21671875 585.43832275 -562.9334375 585.75164551 -563.671875 586.07446289 C-569.39103182 588.62481081 -574.76041524 591.5615225 -580 595 C-576.10439414 596.29853529 -573.60442468 595.21125327 -569.875 593.9375 C-569.20645996 593.71143066 -568.53791992 593.48536133 -567.84912109 593.25244141 C-562.41844513 591.32500411 -557.26921441 588.96581846 -553 585 C-552.67 584.01 -552.34 583.02 -552 582 C-555.41370162 582 -558.41517503 583.77081532 -561.5 585.125 Z M-385 587 C-384.4881973 591.47827363 -383.22995619 593.84882323 -380 597 C-372.0367046 602.89574609 -363.46493114 603.02654477 -354 602 C-347.64809118 600.53302927 -343.53194739 598.67944384 -339 594 C-339.69971924 594.02094727 -340.39943848 594.04189453 -341.12036133 594.06347656 C-344.35092264 594.14762934 -347.58125226 594.19897071 -350.8125 594.25 C-351.91271484 594.28351562 -353.01292969 594.31703125 -354.14648438 594.3515625 C-361.92455745 594.44333917 -367.89054229 593.08740302 -375 590 C-379.86670959 587.86740559 -379.86670959 587.86740559 -385 587 Z M-422.6875 590.125 C-423.84636719 590.58132813 -425.00523437 591.03765625 -426.19921875 591.5078125 C-427.12806885 591.87374512 -427.12806885 591.87374512 -428.07568359 592.24707031 C-453.15403258 602.05950729 -476.21324767 606.79087372 -503 603 C-501.64098489 606.22594495 -500.34827128 607.78891614 -497.375 609.625 C-496.74335938 610.02976562 -496.11171875 610.43453125 -495.4609375 610.8515625 C-479.93179097 618.09849755 -460.59348398 614.09604717 -445.1328125 608.6796875 C-438.51173006 606.2265803 -432.18794404 603.20734378 -425.9375 599.9375 C-425.33019043 599.62135742 -424.72288086 599.30521484 -424.09716797 598.97949219 C-419.92313087 596.71792721 -416.4263159 594.25943293 -413 591 C-413 590.01 -413 589.02 -413 588 C-417.05429727 588 -418.99591073 588.62189451 -422.6875 590.125 Z M-395 609 C-396.3037111 610.32512878 -396.3037111 610.32512878 -397.625 612.0625 C-400.49320599 615.52388728 -403.59088432 618.4298326 -407.02734375 621.3203125 C-408.96230887 622.92477064 -408.96230887 622.92477064 -410.50390625 624.4921875 C-419.30833257 632.99776906 -431.53504209 637.5298489 -443.40234375 639.4296875 C-444.25957031 639.61789062 -445.11679687 639.80609375 -446 640 C-446.33 640.66 -446.66 641.32 -447 642 C-440.34933328 645.12531331 -432.48258731 645.12570238 -425.40234375 643.34765625 C-419.57322105 640.9522672 -414.73789083 637.09102013 -410 633 C-409.40445313 632.49984375 -408.80890625 631.9996875 -408.1953125 631.484375 C-401.91227237 625.75146281 -395.69431235 617.08293706 -393 609 C-393.66 609 -394.32 609 -395 609 Z M-507 633 C-507 633.33 -507 633.66 -507 634 C-500.51590363 633.51969656 -494.80816053 632.00031684 -489 629 C-488.67 628.34 -488.34 627.68 -488 627 C-495.3557797 625.99693913 -500.6942879 629.52098642 -507 633 Z M-366 633 C-367.55533515 635.2738818 -369.06537469 637.56323809 -370.5625 639.875 C-372.36436044 642.59052016 -374.18053305 645.29625398 -376 648 C-376.62003906 648.92425781 -377.24007813 649.84851563 -377.87890625 650.80078125 C-382.52311799 657.1489096 -388.24937193 661.49162912 -394.62939453 665.97924805 C-395.64622314 666.69914917 -395.64622314 666.69914917 -396.68359375 667.43359375 C-397.60483032 668.06865845 -397.60483032 668.06865845 -398.54467773 668.71655273 C-400.29301955 670.0417982 -400.29301955 670.0417982 -401 673 C-392.38247476 672.43798748 -385.46591904 668.92571026 -379.4375 662.75 C-375.65544158 658.26681132 -372.77683694 653.45351356 -370 648.3125 C-369.61384521 647.5999707 -369.22769043 646.88744141 -368.82983398 646.15332031 C-366.54980561 641.71388907 -365.41749813 637.9773605 -365 633 C-365.33 633 -365.66 633 -366 633 Z M-245 646 C-246.71905485 647.9525796 -246.71905485 647.9525796 -248.3125 650.5 C-248.92738281 651.41394531 -249.54226563 652.32789063 -250.17578125 653.26953125 C-251.07876953 654.62111328 -251.07876953 654.62111328 -252 656 C-255.88019826 661.53051043 -260.09238416 666.35373648 -265 671 C-264.01 671.33 -263.02 671.66 -262 672 C-253.84597831 667.40029546 -245.28759874 658.83542162 -242 650 C-242 648.68 -242 647.36 -242 646 C-242.99 646 -243.98 646 -245 646 Z M-383.3125 728.22265625 C-392.60973615 738.35922622 -404.29921159 755.04730489 -404.0625 769.25 C-404.041875 770.4875 -404.02125 771.725 -404 773 C-403.34 773.33 -402.68 773.66 -402 774 C-396.73487126 770.05510625 -393.30478234 765.6072288 -389.625 760.1875 C-389.07972656 759.39923828 -388.53445313 758.61097656 -387.97265625 757.79882812 C-386.64070796 755.87100824 -385.31681896 753.93817094 -384 752 C-385.6953194 759.24363746 -387.6682539 766.2874675 -390.1328125 773.30859375 C-391.56547093 777.75499763 -392.1720841 781.89403888 -392.25 786.5625 C-392.27578125 787.49191406 -392.3015625 788.42132812 -392.328125 789.37890625 C-391.94830425 792.41295058 -391.01289239 793.74873877 -389 796 C-386.34833255 794.99391689 -385.18272985 794.29681391 -383.67553711 791.84863281 C-383.2966333 790.97561523 -382.91772949 790.10259766 -382.52734375 789.203125 C-382.10259766 788.2440625 -381.67785156 787.285 -381.24023438 786.296875 C-380.81033203 785.29140625 -380.38042969 784.2859375 -379.9375 783.25 C-379.07244801 781.27567629 -378.2065844 779.30170796 -377.33984375 777.328125 C-376.93749512 776.40064453 -376.53514648 775.47316406 -376.12060547 774.51757812 C-375.19943338 772.44805165 -374.23268635 770.43237006 -373.19140625 768.421875 C-371.85286161 766.15074242 -371.85286161 766.15074242 -372 764 C-371.34 764 -370.68 764 -370 764 C-370.144375 764.70382812 -370.28875 765.40765625 -370.4375 766.1328125 C-372.44618843 776.817919 -373.35386818 787.51916195 -370 798 C-368.68 798.33 -367.36 798.66 -366 799 C-364.06735762 797.14788439 -363.07631012 795.6588107 -362.765625 792.9765625 C-362.74197652 789.51206069 -362.96265202 786.2380934 -363.5 782.8125 C-364.62372372 774.2441066 -364.28737811 766.07690274 -362.5625 757.625 C-361.76328778 752.98277122 -361.76328778 752.98277122 -363.1796875 748.66015625 C-365.00557623 746.61110334 -366.95729848 744.83112227 -369 743 C-370.24093679 741.50565086 -371.44960712 739.98393301 -372.625 738.4375 C-373.19734375 737.695 -373.7696875 736.9525 -374.359375 736.1875 C-375.90330045 734.12893273 -377.39717654 732.04382309 -378.875 729.9375 C-379.57625 728.968125 -380.2775 727.99875 -381 727 C-382.17700747 726.88639673 -382.17700747 726.88639673 -383.3125 728.22265625 Z M-330.08203125 734.9921875 C-339.16230718 744.49781241 -343.12312929 756.59823895 -343.1875 769.5625 C-343.20167969 770.86316406 -343.21585938 772.16382813 -343.23046875 773.50390625 C-343.02063232 776.68701826 -342.69692677 778.36406237 -341 781 C-339.515 780.505 -339.515 780.505 -338 780 C-336.84767066 777.35228145 -335.85886007 774.7888775 -334.9375 772.0625 C-332.23905836 764.23905836 -332.23905836 764.23905836 -330 762 C-330.03480469 763.41539062 -330.03480469 763.41539062 -330.0703125 764.859375 C-330.23429449 776.52552215 -329.04575957 786.96611025 -325 798 C-324.34 798 -323.68 798 -323 798 C-321.35 793.38 -319.7 788.76 -318 784 C-317.78085937 785.03898438 -317.56171875 786.07796875 -317.3359375 787.1484375 C-315.49070986 795.42713372 -313.60809593 803.33437741 -308 810 C-307.34 810 -306.68 810 -306 810 C-305.65066406 809.14535156 -305.30132813 808.29070312 -304.94140625 807.41015625 C-304.48636719 806.30542969 -304.03132812 805.20070313 -303.5625 804.0625 C-303.11003906 802.96035156 -302.65757812 801.85820313 -302.19140625 800.72265625 C-301 798 -301 798 -300 797 C-299.68546875 798.08539062 -299.3709375 799.17078125 -299.046875 800.2890625 C-298.61511115 801.73453277 -298.18278975 803.17983657 -297.75 804.625 C-297.54503906 805.33785156 -297.34007812 806.05070313 -297.12890625 806.78515625 C-295.71121765 811.46782467 -294.04239608 815.14224177 -291 819 C-290.34 819 -289.68 819 -289 819 C-288.71125 818.195625 -288.4225 817.39125 -288.125 816.5625 C-287 814 -287 814 -285 813 C-284.814375 813.825 -284.62875 814.65 -284.4375 815.5 C-282.54618131 820.10494985 -279.82487438 823.78833193 -276 827 C-273.36935248 827.77335515 -273.36935248 827.77335515 -271 828 C-270.67 824.7 -270.34 821.4 -270 818 C-263.5279135 819.26284615 -260.95693985 823.15657668 -257 828 C-255.51004647 829.69637694 -254.00967971 831.38365414 -252.5 833.0625 C-251.74460937 833.90296875 -250.98921875 834.7434375 -250.2109375 835.609375 C-247.73506181 838.28647027 -245.16477643 840.835512 -242.5078125 843.33203125 C-238.4954945 847.77052811 -237.61128436 851.3055829 -237.375 857.25 C-237.57484704 861.44378196 -237.57484704 861.44378196 -236 865 C-233.70384446 865.23819228 -233.70384446 865.23819228 -231.0625 865.25 C-230.16660156 865.27578125 -229.27070312 865.3015625 -228.34765625 865.328125 C-227.18556641 865.16570312 -227.18556641 865.16570312 -226 865 C-225.34 864.01 -224.68 863.02 -224 862 C-224.66 861.01 -225.32 860.02 -226 859 C-226 858.01 -226 857.02 -226 856 C-221.545 855.01 -221.545 855.01 -217 854 C-217 853.34 -217 852.68 -217 852 C-218.65 851.67 -220.3 851.34 -222 851 C-222 849.68 -222 848.36 -222 847 C-218.7 847.33 -215.4 847.66 -212 848 C-214.37855875 843.24288249 -216.78509515 842.36955135 -221.375 840.3125 C-244.59129803 829.2508005 -256.30637399 811.89457518 -264.96875 788.453125 C-277.17555329 754.91085947 -277.17555329 754.91085947 -302.57421875 731.11328125 C-313.77358538 725.97347531 -320.85516681 726.46135346 -330.08203125 734.9921875 Z M-225.125 735.625 C-229.67351903 739.23455203 -234.24187474 742.60160597 -239.1953125 745.6484375 C-242.29871764 747.97263269 -243.78147673 750.3444302 -245 754 C-245.61630566 760.90262339 -244.12379062 766.7942086 -241 773 C-240.01 773.66 -239.02 774.32 -238 775 C-237.49440092 773.56445975 -236.9957251 772.1264798 -236.5 770.6875 C-236.08234375 769.48673828 -236.08234375 769.48673828 -235.65625 768.26171875 C-234.86066893 765.91230578 -234.86066893 765.91230578 -235 763 C-234.34 763 -233.68 763 -233 763 C-232.85304688 763.56847656 -232.70609375 764.13695312 -232.5546875 764.72265625 C-230.89086197 770.45042346 -228.6932478 775.14442235 -224 779 C-222.68 779.33 -221.36 779.66 -220 780 C-219.67 776.04 -219.34 772.08 -219 768 C-216.0045396 769.4977302 -215.47848057 772.04303887 -214 775 C-211.65820841 778.24829156 -209.39714783 780.84847304 -206 783 C-205.34 783 -204.68 783 -204 783 C-203.67 780.36 -203.34 777.72 -203 775 C-202.278125 775.45375 -201.55625 775.9075 -200.8125 776.375 C-198.25105919 777.85494358 -195.76722011 778.97217539 -193 780 C-191.1119684 778.1119684 -191.69569247 775.08839623 -191.625 772.5625 C-191.67445698 765.63145697 -192.92762059 760.63529259 -197 755 C-199.58445078 752.4224028 -199.58445078 752.4224028 -202 751 C-202.99 753.64 -203.98 756.28 -205 759 C-206.7789444 757.2210556 -206.51097757 754.47749743 -206.8125 752.0625 C-207.88729203 744.81760557 -209.47718567 738.21085461 -214.0625 732.375 C-218.61277171 729.14577492 -221.52531985 732.70771384 -225.125 735.625 Z M-256 757 C-258.34973818 758.89755144 -258.34973818 758.89755144 -258.125 762.125 C-258.08375 763.07375 -258.0425 764.0225 -258 765 C-257.34 765 -256.68 765 -256 765 C-255.34 762.36 -254.68 759.72 -254 757 C-254.66 757 -255.32 757 -256 757 Z M-420 757 C-421.0415625 757.79921875 -422.083125 758.5984375 -423.15625 759.421875 C-426.98813244 762.35986211 -430.82622803 765.28963987 -434.66601562 768.21728516 C-436.76555794 769.82093139 -438.85973205 771.43131225 -440.953125 773.04296875 C-473.48703234 797.94055554 -509.73973442 820.13338542 -548 835 C-548 835.33 -548 835.66 -548 836 C-531.36129827 835.67140804 -516.35685779 830.9573641 -501.85400391 822.99951172 C-498.61046425 821.25088763 -495.30212247 819.63467805 -492 818 C-499.68238078 827.96633183 -509.48586943 833.58500701 -520.8125 838.5546875 C-524.06194709 839.92459617 -524.06194709 839.92459617 -527 842 C-513.96785752 843.05904544 -503.4007088 838.48545505 -493 831 C-492.31663574 830.51208984 -491.63327148 830.02417969 -490.92919922 829.52148438 C-480.2106194 821.84401138 -469.85498247 813.78705592 -459.69384766 805.38964844 C-457.36296464 803.47737024 -454.99423056 801.61443338 -452.625 799.75 C-448.39306733 796.37723487 -444.37282594 792.80640509 -440.37890625 789.15625 C-438.22489491 787.20384564 -436.02972274 785.31722641 -433.8125 783.4375 C-425.65865058 776.20610628 -421.12048015 770.00778666 -419 759 C-419.33 758.34 -419.66 757.68 -420 757 Z M-149.3984375 784.609375 C-153.88636772 787.00832869 -158.43495087 786.73767922 -163.27001953 785.34716797 C-165.514204 784.49555149 -167.69139189 783.5587712 -169.875 782.5625 C-171.35137662 781.91754309 -172.82793185 781.27299482 -174.3046875 780.62890625 C-174.94390137 780.34088135 -175.58311523 780.05285645 -176.24169922 779.75610352 C-177.79485592 779.08821594 -179.39608835 778.53463722 -181 778 C-181.53394179 779.4117783 -182.05165104 780.82970244 -182.5625 782.25 C-182.85253906 783.03890625 -183.14257812 783.8278125 -183.44140625 784.640625 C-184.05790442 787.24457533 -184.0004482 788.53573812 -183 791 C-181.34997172 792.35386936 -179.6825613 793.68678142 -178 795 C-176.22116492 797.90067881 -175.67220667 800.38165775 -175.375 803.75 C-175.30023437 804.54921875 -175.22546875 805.3484375 -175.1484375 806.171875 C-175.09945312 806.77515625 -175.05046875 807.3784375 -175 808 C-174.07058594 807.52949219 -173.14117188 807.05898438 -172.18359375 806.57421875 C-170.9349509 805.94520318 -169.68624985 805.31630312 -168.4375 804.6875 C-167.52387695 804.2244043 -167.52387695 804.2244043 -166.59179688 803.75195312 C-163.47543558 802.18552814 -160.3867438 800.75092197 -157.1328125 799.4921875 C-153.31232623 797.67245464 -153.1137448 796.0737709 -151.5625 792.3203125 C-148.92488435 788.40345326 -144.96624772 786.11917318 -141.03881836 783.58959961 C-137.29538556 781.13690204 -135.01144019 779.1481349 -133 775 C-139.62990517 775 -144.76177141 780.34865481 -149.3984375 784.609375 Z M-250 784 C-253.21077978 787.74544823 -253.21077978 787.74544823 -253.76953125 792.41796875 C-248.9831274 808.47793294 -233.28787403 822.02950514 -219.328125 830.2578125 C-212.8876978 832.31096882 -207.35339899 830.84897841 -201.375 828.3125 C-200.7459375 828.06822266 -200.116875 827.82394531 -199.46875 827.57226562 C-194.37921021 825.48682142 -189.77991868 822.80421151 -186.7578125 818.04296875 C-185.08820496 813.14751455 -184.07126235 809.15027243 -185 804 C-188.98113058 800.02892278 -194.54971531 797.92377707 -200 797 C-201.73271216 797.15126852 -203.46216614 797.34250757 -205.1875 797.5625 C-211.978642 798.38082321 -218.85593816 797.07203092 -225 794 C-229.05142119 793.74139865 -230.54337669 793.69558446 -234 796 C-236.921875 795.97265625 -236.921875 795.97265625 -240 795 C-242.265625 792.49609375 -242.265625 792.49609375 -244.25 789.4375 C-245.45938041 787.59764803 -246.70012995 785.77707459 -248 784 C-248.66 784 -249.32 784 -250 784 Z M-118 785 C-118.66 786.32 -119.32 787.64 -120 789 C-115.71 789 -111.42 789 -107 789 C-110.50220187 784.61979198 -110.50220187 784.61979198 -114.75 784.75 C-116.35875 784.87375 -116.35875 784.87375 -118 785 Z M-139 788 C-138.42765625 788.42925781 -137.8553125 788.85851562 -137.265625 789.30078125 C-133.84375 791.8671875 -130.421875 794.43359375 -127 797 C-127.84094381 793.84646071 -128.50067618 791.53498981 -130.75 789.125 C-133.62434327 787.68782836 -135.82934761 787.78381915 -139 788 Z M-430.63525391 797.58886719 C-434.03011773 801.00689806 -437.41500772 804.4343471 -440.78295898 807.87890625 C-446.79857909 814.02183577 -452.88836463 819.75958651 -459.63232422 825.11035156 C-461.7563648 826.80555409 -463.79501485 828.55543724 -465.8125 830.375 C-468.79073608 833.02300045 -471.8810762 835.47256267 -475.0390625 837.89892578 C-484.78123312 845.39987896 -492.95378746 853.57068411 -500.63671875 863.19140625 C-504.77577597 868.11038499 -509.39452381 872.52012771 -514 877 C-517.24400158 880.19678176 -520.21626892 883.39145971 -523 887 C-516.79964055 885.16285646 -511.35177813 882.82855249 -505.8125 879.5 C-505.08708008 879.06929199 -504.36166016 878.63858398 -503.61425781 878.19482422 C-496.25693474 873.7222532 -489.62068334 868.48220605 -483 863 C-481.33553001 861.66392544 -479.66967898 860.32955919 -478 859 C-485.45415893 873.59772791 -498.96521481 883.20641725 -513 891 C-508.75011979 892.41662674 -505.63318237 890.84347032 -501.5625 889.4375 C-500.75425781 889.16010986 -499.94601562 888.88271973 -499.11328125 888.59692383 C-480.46414254 882.039658 -470.24885114 871.86186016 -458.72070312 856.296875 C-456.44673146 853.26147129 -454.10609191 850.28146905 -451.76049805 847.30126953 C-441.42964947 834.16385704 -431.59481264 820.81607572 -422.75 806.625 C-422.18853271 805.72676514 -421.62706543 804.82853027 -421.04858398 803.90307617 C-420.53239502 803.06107666 -420.01620605 802.21907715 -419.484375 801.3515625 C-419.02772461 800.60729004 -418.57107422 799.86301758 -418.10058594 799.09619141 C-417.00552379 797.01052068 -416.31778361 795.33301136 -416 793 C-417.28184562 790.25167846 -417.28184562 790.25167846 -419 788 C-422.6989976 788 -428.18357906 795.18034763 -430.63525391 797.58886719 Z M-406 802 C-409.57129042 808.180686 -413.12809386 814.36509687 -416.5234375 820.64453125 C-426.77467319 839.60206044 -438.31733191 857.57430705 -450.31539917 875.45968628 C-458.29077694 887.35149729 -466.00950634 899.36402773 -473.49902344 911.56933594 C-474.88981655 913.82157019 -476.30188154 916.05815851 -477.7265625 918.2890625 C-478.3155835 919.2186377 -478.3155835 919.2186377 -478.91650391 920.16699219 C-479.89874679 921.71538588 -480.88655658 923.26024465 -481.875 924.8046875 C-482.431875 925.89136719 -482.431875 925.89136719 -483 927 C-482.67 927.66 -482.34 928.32 -482 929 C-469.76260983 918.39426185 -458.82279277 906.63522519 -450 893 C-451.49478727 898.1549961 -453.78364647 902.50326477 -456.4375 907.125 C-456.83259766 907.82753906 -457.22769531 908.53007813 -457.63476562 909.25390625 C-459.57477746 912.66910179 -461.5285046 915.93248481 -464 919 C-463.505 919.99 -463.505 919.99 -463 921 C-442.49276998 900.40380152 -430.17839325 872.23888904 -416.9375 846.6875 C-416.58814392 846.01638184 -416.23878784 845.34526367 -415.87884521 844.65380859 C-412.09025409 837.36128058 -408.44814487 830.01042162 -405.06640625 822.51953125 C-404.62396828 821.56623177 -404.62396828 821.56623177 -404.17259216 820.59367371 C-402.13538602 815.97832631 -401.30371752 811.98889608 -401 807 C-402.1353673 804.01755087 -402.1353673 804.01755087 -404 802 C-404.66 802 -405.32 802 -406 802 Z M-346 811 C-347.42263326 817.82217316 -348.79429911 824.64047524 -349.9140625 831.51953125 C-351.54968978 841.51914254 -353.31509516 851.22645914 -356.51318359 860.86083984 C-357.86467065 864.88611605 -357.86467065 864.88611605 -357 869 C-350.76108723 857.29918192 -347.41653982 844.74640115 -344 832 C-343.7117334 830.93023926 -343.4234668 829.86047852 -343.12646484 828.75830078 C-342.71388428 827.17831299 -342.71388428 827.17831299 -342.29296875 825.56640625 C-341.92014771 824.1443689 -341.92014771 824.1443689 -341.53979492 822.69360352 C-340.99921253 819.99607049 -340.71734509 817.73834683 -341 815 C-343.39859044 812.66369252 -343.39859044 812.66369252 -346 811 Z M-391 818 C-393.13838091 823.31580803 -395.25549198 828.63931979 -397.33984375 833.9765625 C-405.18295202 854.05498041 -405.18295202 854.05498041 -409.15234375 863.71484375 C-409.41648575 864.35774857 -409.68062775 865.00065338 -409.95277405 865.66304016 C-410.21835617 866.30943954 -410.48393829 866.95583893 -410.75756836 867.62182617 C-415.8415819 879.99960105 -420.78015331 892.42550881 -425.48712158 904.95211792 C-426.07613874 906.51799171 -426.66819242 908.08272685 -427.2633667 909.64627075 C-428.08888767 911.81929811 -428.90179329 913.99661168 -429.7109375 916.17578125 C-429.9591626 916.82424011 -430.2073877 917.47269897 -430.46313477 918.14080811 C-431.88667228 922.00370991 -431.88667228 922.00370991 -431 926 C-406.56798558 896.57761668 -391.67524012 857.29136145 -381 821 C-384.44450737 818.70366176 -386.93812283 818.45983515 -391 818 Z M-366.44921875 819.40625 C-370.31845442 820.67781909 -370.31845442 820.67781909 -371.64453125 824.53125 C-372.06561323 826.17971182 -372.45167507 827.83730888 -372.8125 829.5 C-373.0398584 830.42619141 -373.2672168 831.35238281 -373.50146484 832.30664062 C-374.1945161 835.16074765 -374.85642721 838.0207004 -375.51116943 840.88378906 C-376.46944257 845.03227778 -377.46652632 849.17161244 -378.45703125 853.3125 C-379.78234009 858.85472835 -381.10375318 864.39762046 -382.39770508 869.94726562 C-382.80895126 871.70453393 -383.22064524 873.4616975 -383.6328125 875.21875 C-383.92979286 876.48664368 -383.92979286 876.48664368 -384.23277283 877.78015137 C-385.72344333 884.05382966 -387.46245479 890.21133955 -389.39404297 896.36523438 C-390.26061849 899.08616881 -390.26061849 899.08616881 -389 902 C-380.56590527 884.68318848 -373.55262431 867.13860826 -367.625 848.8125 C-367.29921967 847.80881378 -367.29921967 847.80881378 -366.96685791 846.78485107 C-362.31005357 833.67401656 -362.31005357 833.67401656 -361 820 C-363.14761364 818.69754055 -363.14761364 818.69754055 -366.44921875 819.40625 Z M-205 840 C-200.79306316 848.18263126 -200.79306316 848.18263126 -194 854 C-188.35045583 854.4947666 -183.28881141 854.05076361 -178 852 C-177.34 851.01 -176.68 850.02 -176 849 C-177.08539062 848.87882813 -178.17078125 848.75765625 -179.2890625 848.6328125 C-180.73441404 848.46387531 -182.17972442 848.29458575 -183.625 848.125 C-184.69427734 848.00705078 -184.69427734 848.00705078 -185.78515625 847.88671875 C-190.08202185 847.37424854 -193.921207 846.53115573 -198 845 C-197.75219727 843.14746094 -197.75219727 843.14746094 -197 841 C-195.23413086 839.71972656 -195.23413086 839.71972656 -192.96484375 838.640625 C-192.15595703 838.24746094 -191.34707031 837.85429688 -190.51367188 837.44921875 C-189.2384668 836.85560547 -189.2384668 836.85560547 -187.9375 836.25 C-187.08349609 835.83878906 -186.22949219 835.42757812 -185.34960938 835.00390625 C-183.23879474 833.98977184 -181.12256526 832.98924271 -179 832 C-187.24012229 829.46878628 -197.7562095 836.08835313 -205 840 Z M-249 877 C-249.5923739 880.62829011 -249.4674199 882.25991849 -247.5 885.375 C-247.005 885.91125 -246.51 886.4475 -246 887 C-246 884.69 -246 882.38 -246 880 C-244.68 880 -243.36 880 -242 880 C-240.68 877.69 -239.36 875.38 -238 873 C-239.03632739 871.76992655 -239.03632739 871.76992655 -241.25 871.625 C-245.25213481 872.17074566 -246.59416054 873.83803957 -249 877 Z M-246 887 C-245 889 -245 889 -245 889 Z " fill="#070707" transform="translate(856,32)"/>
<path d="M0 0 C1 3 1 3 0.00390625 5.48046875 C-0.47175781 6.37378906 -0.94742187 7.26710938 -1.4375 8.1875 C-1.91058594 9.08855469 -2.38367188 9.98960937 -2.87109375 10.91796875 C-3.24363281 11.60503906 -3.61617188 12.29210937 -4 13 C-4.99 13 -5.98 13 -7 13 C-9.15028304 13.94978897 -9.15028304 13.94978897 -11 15 C-10.62488281 14.50371094 -10.24976563 14.00742187 -9.86328125 13.49609375 C-6.50836081 9.04258476 -3.22288764 4.54995902 0 0 Z " fill="#474747" transform="translate(406,924)"/>
<path d="M0 0 C0.33 0.66 0.66 1.32 1 2 C-0.98 4.64 -2.96 7.28 -5 10 C-6.65 9.67 -8.3 9.34 -10 9 C-6.83047153 5.73991357 -3.60062011 2.77762123 0 0 Z " fill="#2F2F2E" transform="translate(378,890)"/>
<path d="M0 0 C0.33 0.99 0.66 1.98 1 3 C0.34 3.66 -0.32 4.32 -1 5 C-1.66 5 -2.32 5 -3 5 C-4.34882408 5.63474075 -5.6846659 6.29848848 -7 7 C-3.375 1.125 -3.375 1.125 0 0 Z " fill="#313132" transform="translate(402,932)"/>
</svg>
